<svg width="100" height="64" viewBox="0 0 100 64" xmlns="http://www.w3.org/2000/svg"><title>Shape</title><path d="M73.187 23.11h10.225a1 1 0 0 0 .956-.708l3.15-10.337c.216-.7-.346-1.29-.954-1.292l-13.376-.012c-.525 0-1 .428-1 1v10.35a1 1 0 0 0 1 1zm7.694-10.342l4.333.004-.26.852h-4.228l.156-.856zm-.517 2.856h3.98l-.442 1.45h-3.8l.263-1.45zm-.624 3.45h3.55l-.62 2.036h-3.3l.37-2.035zm-5.553-6.312l4.66.004-.154.858h-4.506v-.862zm0 2.863h4.144l-.262 1.45h-3.88v-1.45zm0 3.45h3.52l-.37 2.035h-3.15v-2.035zm6.853 7.853c-2.73 0-5.315.612-7.65 1.68l-.165-.476a18.884 18.884 0 0 1 7.817-1.698c1.325 0 1.325-2 0-2-2.974 0-5.845.632-8.483 1.802L68.117 13.57c2.448-4.236 2.59-8.926 1.423-12.7-.14-.452-.727-.91-1.37-.614l-7.496 3.442c-1.197.55-.36 2.37.834 1.817l6.416-2.946c.614 2.79.53 6.675-1.755 10.364a1 1 0 0 0-.094.857l1.28 3.65c-2.674 11.928-11.862 21.383-23.64 24.453-.685.14-.884.08-.884.08l-1.09-2.96h.726c1.327 0 1.327-2 0-2h-1.463l-5.91-16.043c-.47-1.275-2.348-.583-1.878.69l3.132 8.502-1.7 1.362c-7.465-8.43-19.47-9.098-27.728-3.292h-1.93c-1.284 0-1.284 2 0 2h2.25c.212 0 .418-.067.59-.19 7.714-5.606 18.64-4.668 25.257 2.732l-.4.32c-3.383-3.775-8.278-6.167-13.734-6.167C8.78 26.93.5 35.21.5 45.385.502 55.56 8.783 63.838 18.96 63.838c7.96 0 14.74-5.077 17.324-12.154l6.178 1.013c.773.14 1.448.217 2.22.087l1.09 2.96h-.726c-1.295 0-1.294 2 0 2h4.072c1.316 0 1.316-2 0-2h-1.214l-1.346-3.653c3.115-1.856 3.848-6.6.458-9.115a34.772 34.772 0 0 0 21.5-22.215l2.24 6.383c-8.08 4.57-14.053 15.718-8.693 27.132.53 1.13 2.395.395 1.81-.85-4.356-9.285-.586-19.547 7.56-24.357l.17.485c-5.393 3.227-9.02 9.105-9.02 15.83 0 10.177 8.28 18.455 18.457 18.455 10.178 0 18.458-8.28 18.46-18.453 0-10.176-8.282-18.456-18.46-18.457zm-48.647 8.97a16.244 16.244 0 0 1 2.664 6.075H33.52a14.793 14.793 0 0 0-2.29-5.144l1.163-.932zm-10.78 6.077H18.96c-1.154 0-3.412.892-3.41 3.407-.003 2.36 2.076 3.24 2.856 3.37l12.337 2.022c-1.806 3.94-5.968 7.573-11.784 7.573-7.15 0-12.966-5.815-12.967-12.963.002-7.148 5.818-12.964 12.965-12.964 5.14 0 8.245 2.833 9.452 4.107l-6.796 5.448zm8.056-3.894a12.804 12.804 0 0 1 1.79 3.895h-6.648l4.857-3.894zm-9.3 7.305c0 1.115-1.043 1.41-1.41 1.41v.02-.02a1.42 1.42 0 0 1-1.412-1.413c0-.63.497-1.407 1.41-1.407.547 0 1.41.423 1.41 1.41zm1.424 1.896c.125-.187.232-.384.317-.59l9.613.916c-.073.425-.166.844-.28 1.257l-9.65-1.582zm.505-2.58a3.363 3.363 0 0 0-.245-.726h9.788c.07.657.078 1.196.07 1.642l-9.614-.917zm-3.34 17.138c-9.075 0-16.46-7.38-16.46-16.453S9.883 28.93 18.957 28.93c6.006 0 10.023 3.04 12.178 5.413l-1.164.933c-1.018-1.108-4.664-4.856-11.013-4.855-8.25 0-14.963 6.714-14.965 14.965 0 8.25 6.715 14.963 14.966 14.963 6.83-.002 11.832-4.395 13.835-9.237l1.483.244c-2.396 6.126-8.35 10.484-15.317 10.484zm15.932-12.41l-1.47-.24c.12-.457.218-.92.293-1.39l1.482.14c-.08.505-.18 1.002-.305 1.49zm.496-3.48l-1.484-.142c.017-.598.022-1.072-.048-1.833h1.492c.066.78.063 1.336.04 1.974zm-1.443-11.294l.395-.317a18.785 18.785 0 0 1 3.245 7.637h-.498a18.33 18.33 0 0 0-3.142-7.32zm2.927 15.1c.13-.533.235-1.076.317-1.626l1.164.11c.104.664.332 1.29.666 1.867l-2.148-.35zm1.523-3.52l-1.016-.097c.037-.753 0-1.73-.035-2.164h2.14a5.403 5.403 0 0 0-1.09 2.26zM35.9 33.086l1.178-.943 3.622 9.83h-1.09a20.78 20.78 0 0 0-3.71-8.887zM41.67 44.6l.743 2.018-1.994-.19c.117-.41.36-1.148 1.252-1.827zm-1.22 3.838l2.73.26.79 2.147c-1.684.116-3.058-.962-3.52-2.407zm5.4 1.718l-2.27-6.16c2.766-.65 5.344 3.84 2.27 6.16zm27.634-15.28c2.608 6.91 6.67 11.034 6.852 11.215.828.83 2.437-.39 1.415-1.412-.043-.043-4.073-4.153-6.524-10.862a12.885 12.885 0 0 1 5.82-1.395c7.146 0 12.962 5.816 12.962 12.964 0 7.148-5.816 12.963-12.967 12.963-7.16 0-12.966-5.8-12.964-12.962 0-4.326 2.14-8.155 5.406-10.51zm7.56 26.962c-9.075 0-16.458-7.38-16.46-16.454 0-5.852 3.08-10.986 7.696-13.905l.505 1.438c-4.038 2.683-6.707 7.268-6.707 12.467-.002 8.38 6.806 14.962 14.965 14.962 8.254 0 14.968-6.712 14.968-14.963 0-8.25-6.713-14.963-14.966-14.963-2.327 0-4.522.55-6.49 1.5l-.495-1.415c2.123-1 4.484-1.577 6.983-1.577 9.075 0 16.46 7.383 16.46 16.457 0 9.07-7.385 16.452-16.46 16.453zM28.25 20.57c4.248 0 7.388-2.176 12.18-2.176 1.332 0 1.332-2 0-2H33.82c-2.356 0-5.047-1.504-5.074-1.52a1 1 0 0 0-.493-.13c-3.857.005-3.857 5.827 0 5.827zm-.205-3.8c.587.304 1.996.977 3.615 1.355-1.068.262-2.167.447-3.41.447-1.1 0-1.19-1.572-.205-1.802z" fill="#000" fill-rule="evenodd"/></svg>