<svg width="100" height="64" viewBox="0 0 100 64" xmlns="http://www.w3.org/2000/svg"><title>Shape</title><path d="M73.187 23.11h10.225a1 1 0 0 0 .956-.708l3.15-10.337c.216-.7-.346-1.29-.954-1.292l-13.376-.012c-.525 0-1 .43-1 1v10.35a1 1 0 0 0 1 1zm7.694-10.342l4.34.004-.26.852h-4.23l.16-.856zm-.51 2.856h3.98l-.44 1.45h-3.8l.268-1.45zm-.62 3.45h3.55l-.62 2.036h-3.3l.37-2.035zm-5.55-6.312l4.66.004-.15.858H74.2v-.862zm0 2.863h4.147l-.26 1.45H74.2v-1.45zm0 3.45h3.52l-.37 2.035H74.2v-2.035zm6.856 7.853c-2.73 0-5.314.612-7.65 1.68l-.164-.476a18.884 18.884 0 0 1 7.817-1.698c1.325 0 1.325-2 0-2a20.87 20.87 0 0 0-8.483 1.802L68.12 13.57c2.45-4.236 2.59-8.926 1.424-12.7-.14-.452-.73-.91-1.37-.614l-7.5 3.442c-1.197.55-.36 2.37.834 1.817L67.92 2.57c.614 2.79.53 6.67-1.755 10.36a1 1 0 0 0-.095.857l1.28 3.65C64.68 29.367 55.49 38.82 43.712 41.89c-.684.14-.883.08-.883.08l-1.09-2.96h.72c1.32 0 1.32-2 0-2H41l-5.91-16.043c-.47-1.276-2.347-.584-1.877.69l3.132 8.5-1.7 1.363c-7.465-8.43-19.47-9.098-27.728-3.292H4.99c-1.284 0-1.284 2 0 2h2.25c.212 0 .418-.066.59-.19 7.714-5.605 18.64-4.667 25.257 2.733l-.4.32c-3.383-3.77-8.278-6.16-13.734-6.16C8.78 26.93.5 35.21.5 45.39c.002 10.172 8.283 18.45 18.46 18.45 7.96 0 14.74-5.078 17.324-12.155l6.178 1.013c.773.14 1.448.217 2.22.087l1.09 2.96h-.726c-1.295 0-1.294 2 0 2h4.072c1.316 0 1.316-2 0-2h-1.214l-1.346-3.653c3.115-1.855 3.848-6.6.458-9.114a34.772 34.772 0 0 0 21.5-22.215l2.24 6.386c-8.08 4.57-14.053 15.714-8.693 27.13.53 1.13 2.395.393 1.81-.85-4.356-9.287-.586-19.55 7.56-24.36l.17.49c-5.393 3.23-9.02 9.108-9.02 15.83 0 10.18 8.28 18.458 18.457 18.458 10.178 0 18.458-8.28 18.46-18.453 0-10.176-8.282-18.456-18.46-18.457zm-48.65 8.97a16.244 16.244 0 0 1 2.665 6.075h-1.54a14.793 14.793 0 0 0-2.29-5.144l1.163-.94zm-10.78 6.077h-2.66c-1.153 0-3.41.892-3.41 3.407-.002 2.36 2.077 3.24 2.857 3.37l12.337 2.022c-1.807 3.94-5.97 7.573-11.785 7.573-7.15 0-12.97-5.815-12.97-12.963 0-7.148 5.82-12.964 12.96-12.964 5.14 0 8.244 2.833 9.45 4.107l-6.796 5.448zm8.057-3.894a12.804 12.804 0 0 1 1.79 3.9h-6.65l4.858-3.89zm-9.3 7.31c0 1.12-1.044 1.41-1.41 1.41v.02-.02a1.42 1.42 0 0 1-1.413-1.41c0-.63.497-1.4 1.41-1.4.547 0 1.41.422 1.41 1.41zm1.424 1.9a3.39 3.39 0 0 0 .315-.59l9.613.92a12.93 12.93 0 0 1-.28 1.26l-9.65-1.583zm.503-2.58a3.363 3.363 0 0 0-.245-.72h9.786c.07.657.08 1.196.07 1.64l-9.62-.93zm-3.34 17.14c-9.075 0-16.46-7.38-16.46-16.45s7.373-16.47 16.45-16.47c6.005 0 10.022 3.04 12.177 5.414l-1.164.933c-1.015-1.108-4.66-4.856-11.01-4.855-8.25 0-14.963 6.72-14.965 14.97 0 8.25 6.715 14.97 14.966 14.97 6.83 0 11.83-4.394 13.835-9.236l1.48.244c-2.4 6.12-8.36 10.48-15.32 10.48zm15.92-12.42l-1.47-.24c.12-.456.218-.92.293-1.39l1.482.14c-.08.506-.18 1.003-.305 1.49zm.496-3.48l-1.484-.14c.017-.6.022-1.073-.048-1.834h1.492c.066.78.063 1.336.04 1.974zm-1.443-11.293l.395-.317a18.785 18.785 0 0 1 3.245 7.63h-.498a18.33 18.33 0 0 0-3.142-7.32zm2.927 15.1c.13-.533.235-1.076.317-1.626l1.164.11a5.42 5.42 0 0 0 .67 1.868l-2.15-.35zm1.523-3.52l-1.016-.097c.037-.76 0-1.73-.035-2.17h2.14a5.403 5.403 0 0 0-1.09 2.26zM35.9 33.087l1.178-.944 3.622 9.83h-1.09a20.78 20.78 0 0 0-3.71-8.887zM41.67 44.6l.743 2.018-1.994-.19c.11-.41.36-1.148 1.25-1.827zm-1.22 3.838l2.73.26.79 2.147c-1.684.116-3.058-.962-3.52-2.407zm5.4 1.718l-2.27-6.16c2.766-.65 5.344 3.84 2.27 6.16zm27.634-15.28c2.608 6.91 6.67 11.034 6.852 11.215.828.83 2.437-.39 1.415-1.41-.04-.04-4.07-4.15-6.52-10.86a12.885 12.885 0 0 1 5.82-1.39c7.15 0 12.96 5.82 12.96 12.97S88.2 58.36 81.05 58.36c-7.16 0-12.964-5.8-12.962-12.96 0-4.327 2.14-8.156 5.406-10.51zm7.56 26.962c-9.075 0-16.458-7.38-16.46-16.454 0-5.852 3.08-10.986 7.696-13.905l.505 1.43c-4.038 2.68-6.707 7.27-6.707 12.46-.002 8.38 6.806 14.963 14.965 14.963 8.254 0 14.968-6.713 14.968-14.964 0-8.25-6.71-14.963-14.96-14.963a14.9 14.9 0 0 0-6.49 1.5l-.49-1.416a16.36 16.36 0 0 1 6.987-1.575c9.075 0 16.46 7.382 16.46 16.456 0 9.07-7.385 16.453-16.46 16.454zM28.25 20.57c4.248 0 7.388-2.176 12.18-2.176 1.332 0 1.332-2 0-2h-6.61c-2.356 0-5.047-1.504-5.074-1.52a1 1 0 0 0-.493-.13c-3.857.005-3.857 5.827 0 5.827zm-.205-3.8c.587.304 1.996.977 3.615 1.355-1.068.262-2.167.447-3.41.447-1.1 0-1.19-1.572-.205-1.802z" fill-rule="evenodd"/></svg>