<svg width="100" height="64" viewBox="0 0 100 64" xmlns="http://www.w3.org/2000/svg"><title>Shape</title><path d="M73.187 23.11h10.225a1 1 0 0 0 .956-.708l3.15-10.337c.216-.7-.346-1.29-.954-1.292l-13.376-.012c-.525 0-1 .43-1 1v10.35a1 1 0 0 0 1 1zm7.694-10.342l4.34.004-.26.852h-4.23l.157-.856zm-.51 2.856h3.98l-.44 1.45h-3.8l.262-1.45zm-.623 3.45h3.55l-.62 2.036h-3.3l.37-2.035zm-5.552-6.312l4.66.004-.153.858h-4.51v-.862zm0 2.863h4.145l-.26 1.45H74.2v-1.45zm0 3.45h3.52l-.37 2.035h-3.15v-2.035zm6.854 7.853c-2.73 0-5.315.612-7.65 1.68l-.165-.476a18.884 18.884 0 0 1 7.816-1.698c1.325 0 1.325-2 0-2-2.974 0-5.845.632-8.483 1.802l-4.45-12.666c2.45-4.236 2.59-8.926 1.424-12.7-.14-.452-.73-.91-1.37-.614l-7.5 3.442c-1.197.55-.36 2.37.834 1.817L67.92 2.57c.614 2.79.53 6.67-1.755 10.36a1 1 0 0 0-.095.857l1.28 3.65C64.68 29.367 55.49 38.82 43.712 41.89c-.684.14-.883.08-.883.08l-1.09-2.96h.72c1.327 0 1.327-2 0-2H41l-5.91-16.043c-.47-1.276-2.347-.584-1.877.69l3.132 8.5-1.7 1.363c-7.465-8.43-19.47-9.098-27.728-3.292H4.99c-1.284 0-1.284 2 0 2h2.25c.212 0 .418-.066.59-.19 7.714-5.605 18.64-4.667 25.257 2.733l-.4.32c-3.383-3.77-8.278-6.16-13.734-6.16C8.78 26.93.5 35.21.5 45.387c.002 10.172 8.283 18.45 18.46 18.45 7.96 0 14.74-5.078 17.324-12.155l6.178 1.013c.773.14 1.448.217 2.22.087l1.09 2.96h-.726c-1.295 0-1.294 2 0 2h4.072c1.316 0 1.316-2 0-2h-1.214l-1.346-3.653c3.115-1.854 3.848-6.6.458-9.113a34.772 34.772 0 0 0 21.5-22.215l2.24 6.384c-8.08 4.57-14.053 15.718-8.693 27.132.53 1.13 2.395.395 1.81-.85-4.356-9.285-.586-19.547 7.56-24.357l.17.49c-5.393 3.228-9.02 9.106-9.02 15.83 0 10.178 8.28 18.456 18.457 18.456 10.178 0 18.458-8.28 18.46-18.453 0-10.176-8.282-18.456-18.46-18.457zm-48.65 8.97a16.244 16.244 0 0 1 2.664 6.075h-1.54a14.793 14.793 0 0 0-2.29-5.144l1.163-.94zm-10.78 6.077h-2.66c-1.154 0-3.412.892-3.41 3.407-.003 2.36 2.076 3.24 2.856 3.37l12.337 2.022c-1.806 3.94-5.968 7.573-11.784 7.573-7.15 0-12.97-5.815-12.97-12.963 0-7.148 5.82-12.964 12.96-12.964 5.14 0 8.245 2.833 9.452 4.107l-6.797 5.448zm8.056-3.894a12.804 12.804 0 0 1 1.79 3.9h-6.65l4.858-3.89zm-9.3 7.31c0 1.118-1.044 1.41-1.41 1.41v.02-.02a1.42 1.42 0 0 1-1.413-1.41c0-.63.498-1.407 1.41-1.407.548 0 1.41.423 1.41 1.41zm1.424 1.9a3.39 3.39 0 0 0 .314-.59l9.613.916c-.074.425-.167.844-.28 1.257l-9.65-1.582zm.502-2.58a3.363 3.363 0 0 0-.244-.726h9.787c.07.657.08 1.196.07 1.64L22.3 44.7zm-3.34 17.138c-9.074 0-16.46-7.38-16.46-16.452S9.882 28.93 18.96 28.93c6.005 0 10.022 3.04 12.177 5.413l-1.164.933c-1.015-1.108-4.66-4.856-11.01-4.855-8.25 0-14.963 6.72-14.965 14.97 0 8.25 6.715 14.966 14.966 14.966 6.83-.002 11.83-4.395 13.835-9.237l1.48.243c-2.4 6.12-8.355 10.48-15.32 10.48zM34.89 49.43l-1.47-.24c.12-.457.218-.92.293-1.39l1.482.14c-.08.505-.18 1.002-.305 1.49zm.496-3.48l-1.484-.142c.017-.598.022-1.072-.048-1.833h1.492c.066.78.063 1.336.04 1.974zm-1.443-11.294l.395-.317a18.785 18.785 0 0 1 3.245 7.63h-.498a18.33 18.33 0 0 0-3.142-7.32zm2.927 15.1c.13-.533.235-1.076.317-1.626l1.164.11a5.42 5.42 0 0 0 .67 1.867l-2.15-.35zm1.523-3.52l-1.016-.097c.037-.76 0-1.73-.035-2.17h2.14a5.403 5.403 0 0 0-1.09 2.26zM35.9 33.086l1.178-.943 3.622 9.83h-1.09a20.78 20.78 0 0 0-3.71-8.887zM41.67 44.6l.743 2.018-1.994-.19c.11-.41.36-1.148 1.25-1.827zm-1.22 3.838l2.73.26.79 2.147c-1.684.116-3.058-.962-3.52-2.407zm5.4 1.718l-2.27-6.16c2.766-.65 5.344 3.84 2.27 6.16zm27.634-15.28c2.608 6.91 6.67 11.034 6.852 11.215.828.83 2.437-.39 1.415-1.41-.04-.04-4.07-4.15-6.52-10.86a12.885 12.885 0 0 1 5.82-1.39c7.15 0 12.96 5.815 12.96 12.963 0 7.148-5.81 12.963-12.962 12.963-7.16 0-12.966-5.8-12.964-12.962 0-4.325 2.14-8.154 5.406-10.51zm7.56 26.962c-9.075 0-16.458-7.38-16.46-16.454 0-5.852 3.08-10.986 7.696-13.905l.505 1.43c-4.038 2.683-6.707 7.27-6.707 12.467-.002 8.38 6.806 14.962 14.965 14.962 8.254 0 14.968-6.713 14.968-14.964 0-8.25-6.71-14.963-14.96-14.963-2.325 0-4.52.55-6.49 1.5l-.493-1.416c2.124-1 4.485-1.576 6.984-1.576 9.075 0 16.46 7.384 16.46 16.458 0 9.07-7.385 16.452-16.46 16.453zM28.25 20.57c4.248 0 7.388-2.176 12.18-2.176 1.332 0 1.332-2 0-2h-6.61c-2.356 0-5.047-1.504-5.074-1.52a1 1 0 0 0-.493-.13c-3.857.005-3.857 5.827 0 5.827zm-.205-3.8c.587.304 1.996.977 3.615 1.355-1.068.262-2.167.447-3.41.447-1.1 0-1.19-1.572-.205-1.802z" fill-rule="evenodd"/></svg>