<svg width="150" height="152" viewBox="0 0 150 152" xmlns="http://www.w3.org/2000/svg"><title>Shape</title><path d="M75.006 51.612c-13.943 0-25.286 11.343-25.286 25.286 0 13.943 11.343 25.29 25.286 25.29 13.943 0 25.286-11.347 25.286-25.29 0-13.94-11.343-25.286-25.286-25.286zm0 47.515c-12.255 0-22.226-9.973-22.226-22.23 0-12.253 9.97-22.224 22.226-22.224 12.255 0 22.227 9.97 22.227 22.225 0 12.256-9.972 22.23-22.227 22.23zm16.3-49.712a4.477 4.477 0 0 0 3.457 1.623 4.52 4.52 0 0 0 2.88-1.042 4.477 4.477 0 0 0 1.6-3.05 4.467 4.467 0 0 0-1.024-3.29l-4.95-5.935c-1.53-1.83-4.5-2.11-6.34-.57a4.478 4.478 0 0 0-1.6 3.05 4.47 4.47 0 0 0 1.02 3.29l4.95 5.93zm-2.416-9.92a1.435 1.435 0 0 1 2.027.186l4.95 5.94a1.44 1.44 0 0 1-.186 2.03 1.426 1.426 0 0 1-.92.335c-.42 0-.83-.19-1.1-.522l-4.95-5.936a1.425 1.425 0 0 1-.323-1.05 1.43 1.43 0 0 1 .51-.976zm-50.643 46.71a4.505 4.505 0 0 0 .578-6.336l-4.95-5.94c-1.528-1.84-4.498-2.11-6.336-.58a4.472 4.472 0 0 0-1.6 3.05 4.47 4.47 0 0 0 1.02 3.29l4.95 5.94a4.49 4.49 0 0 0 3.45 1.61 4.51 4.51 0 0 0 2.88-1.043zm-8.935-8.472a1.433 1.433 0 0 1-.327-1.052 1.43 1.43 0 0 1 .512-.97 1.437 1.437 0 0 1 2.027.18l4.95 5.94a1.44 1.44 0 0 1-1.104 2.36c-.43 0-.833-.18-1.108-.51l-4.95-5.937zM39.83 48.538a4.485 4.485 0 0 0 3.457 1.618c1.047 0 2.07-.37 2.88-1.042a4.504 4.504 0 0 0 .575-6.335l-4.948-5.94c-1.53-1.84-4.495-2.12-6.338-.58a4.504 4.504 0 0 0-.577 6.332l4.95 5.937zm-2.415-9.923c.332-.277.684-.333.922-.333.43 0 .832.187 1.107.516l4.947 5.938a1.44 1.44 0 1 1-2.21 1.844l-4.94-5.938a1.44 1.44 0 0 1 .183-2.027zm36.832-8.726a4.476 4.476 0 0 0 4.89-4.07l.7-7.7a4.508 4.508 0 0 0-4.072-4.89 4.47 4.47 0 0 0-4.89 4.07l-.7 7.7a4.474 4.474 0 0 0 1.3 3.582 4.51 4.51 0 0 0 2.773 1.3zm-.324-12.31c.066-.73.688-1.31 1.548-1.31h.02a1.44 1.44 0 0 1 1.306 1.563l-.7 7.7a1.428 1.428 0 0 1-1.427 1.31l-.135-.01a1.435 1.435 0 0 1-1.303-1.563l.7-7.696zM45.51 118.76a4.47 4.47 0 0 0-4.888 4.072l-.7 7.695a4.483 4.483 0 0 0 1.3 3.593 4.48 4.48 0 0 0 3.186 1.315c2.34 0 4.264-1.76 4.476-4.09l.7-7.7a4.502 4.502 0 0 0-4.073-4.885zm.325 12.305a1.428 1.428 0 0 1-1.427 1.31l-.138-.008a1.43 1.43 0 0 1-1.3-1.562l.702-7.698c.066-.74.674-1.303 1.547-1.303a1.44 1.44 0 0 1 1.31 1.565l-.703 7.69zm75.057-59.65a4.478 4.478 0 0 0 4.478-4.09 4.508 4.508 0 0 0-4.075-4.89l-7.697-.7a4.464 4.464 0 0 0-3.59 1.3 4.5 4.5 0 0 0-1.296 2.77 4.466 4.466 0 0 0 1.022 3.29 4.483 4.483 0 0 0 3.05 1.6l7.696.702c.138.012.276.018.412.018zm-8.807-4.278a1.428 1.428 0 0 1-.328-1.05c.04-.43.247-.72.412-.887.26-.267.62-.417 1.12-.417.01 0 .02 0 .03.002l7.69.7c.79.073 1.374.775 1.303 1.563a1.43 1.43 0 0 1-1.43 1.31l-7.83-.71a1.433 1.433 0 0 1-.976-.51zm-39.552 43.44l-7.694-.697a4.45 4.45 0 0 0-3.6 1.297 4.496 4.496 0 0 0-1.298 2.77 4.46 4.46 0 0 0 1.02 3.29 4.48 4.48 0 0 0 3.05 1.602l7.7.7a4.48 4.48 0 0 0 4.89-4.08 4.464 4.464 0 0 0-1.025-3.29 4.484 4.484 0 0 0-3.053-1.6zm-.404 5.92l-7.84-.706a1.425 1.425 0 0 1-.976-.51 1.42 1.42 0 0 1-.327-1.05c.04-.43.247-.72.412-.89.266-.26.616-.41 1.117-.41h.036l7.696.7a1.43 1.43 0 0 1 1.3 1.56 1.43 1.43 0 0 1-1.43 1.31zm35.01-22.05l-7.72.473a4.504 4.504 0 0 0-4.218 4.767 4.503 4.503 0 0 0 4.767 4.214l7.714-.47a4.507 4.507 0 0 0 4.212-4.77c-.15-2.46-2.3-4.364-4.766-4.21zm.36 5.926l-7.71.476h-.09a1.45 1.45 0 0 1-1.44-1.35 1.42 1.42 0 0 1 .28-.94 1.43 1.43 0 0 1 1.07-.59l7.81-.48a1.44 1.44 0 0 1 .08 2.877zm18.53-12.74l-5.94 4.95a4.484 4.484 0 0 0-1.62 3.456 4.49 4.49 0 0 0 4.503 4.5 4.51 4.51 0 0 0 2.875-1.05l5.94-4.95a4.51 4.51 0 0 0 .575-6.34c-1.53-1.83-4.5-2.106-6.337-.574zm3.8 4.562l-5.94 4.95a1.433 1.433 0 0 1-2.024-.186 1.42 1.42 0 0 1-.335-.92c0-.43.19-.83.52-1.11l5.94-4.95c.33-.277.68-.33.917-.33a1.44 1.44 0 0 1 .925 2.54zm-71.34-47.59a4.5 4.5 0 0 0 2.877-1.043l5.935-4.947a4.468 4.468 0 0 0 1.6-3.05 4.47 4.47 0 0 0-1.023-3.288c-1.53-1.835-4.5-2.106-6.337-.576l-5.94 4.95a4.486 4.486 0 0 0-1.617 3.46 4.52 4.52 0 0 0 1.042 2.88 4.486 4.486 0 0 0 3.46 1.62zM57.57 39l5.94-4.947a1.43 1.43 0 0 1 2.024.182c.246.295.363.67.328 1.052a1.435 1.435 0 0 1-.512.976l-5.938 4.95c-.33.275-.682.332-.918.332a1.43 1.43 0 0 1-1.106-.518 1.44 1.44 0 0 1 .18-2.027zm-10.91 64.458a4.507 4.507 0 0 0 .577-6.337c-1.527-1.83-4.496-2.1-6.337-.57l-5.938 4.95a4.488 4.488 0 0 0-1.62 3.458 4.52 4.52 0 0 0 1.045 2.88 4.48 4.48 0 0 0 3.457 1.62 4.51 4.51 0 0 0 2.878-1.044l5.938-4.947zm-8.816 2.932a1.43 1.43 0 0 1-1.106-.518 1.44 1.44 0 0 1 .183-2.027l5.94-4.948a1.438 1.438 0 0 1 1.848 2.213l-5.937 4.948a1.41 1.41 0 0 1-.92.332zM16.54 55.19l-5.94 4.948a4.49 4.49 0 0 0-1.62 3.458c0 1.048.372 2.07 1.045 2.88a4.5 4.5 0 0 0 6.337.576L22.3 62.1a4.508 4.508 0 0 0 .574-6.338c-1.53-1.832-4.497-2.108-6.335-.574zm3.8 4.563l-5.937 4.95a1.42 1.42 0 0 1-.92.332 1.435 1.435 0 0 1-.923-2.543l5.938-4.95c.332-.278.684-.335.92-.335.43 0 .832.188 1.104.517.508.61.426 1.52-.183 2.028zm95.94-1.916c.138.012.277.018.414.018a4.473 4.473 0 0 0 4.476-4.09l.7-7.697a4.464 4.464 0 0 0-1.026-3.288 4.47 4.47 0 0 0-3.05-1.6 4.48 4.48 0 0 0-4.887 4.073l-.7 7.7a4.49 4.49 0 0 0 1.3 3.588 4.49 4.49 0 0 0 2.773 1.3zm-.323-12.308c.066-.73.685-1.31 1.547-1.31h.014c.383.034.73.22.98.513.244.294.36.665.325 1.05l-.702 7.696a1.427 1.427 0 0 1-1.42 1.307l-.14-.006a1.434 1.434 0 0 1-1.3-1.56l.7-7.698zm24.998-3.95C130.31 21.76 110.98 7.29 88.093 3.25 84.13 1.132 79.663 0 75.006 0c-4.686 0-9.18 1.153-13.164 3.303-22.667 4.076-41.824 18.39-52.46 37.99-7.715 6.8-11.072 17.488-8.56 27.49a75.12 75.12 0 0 0-.438 8.027c0 19.195 7.282 36.716 19.222 49.965 3.77 10.793 14.16 18.492 25.86 18.604a74.284 74.284 0 0 0 29.628 6.14c4.22 0 8.35-.39 12.38-1.07.023 0 .045.01.07.01.158 0 .317-.03.475-.08.02-.01.03-.027.05-.03.133-.028.272-.04.41-.07-.018-.046-.03-.096-.047-.14a1.52 1.52 0 0 0 .56-1.69 31.005 31.005 0 0 1-1.53-9.645c0-17.1 13.913-31.016 31.017-31.016 7.02 0 13.645 2.29 19.156 6.616a1.527 1.527 0 0 0 2.146-.256 1.5 1.5 0 0 0 .2-.4 74.22 74.22 0 0 0 9.814-36.94c0-2.89-.182-5.733-.503-8.54 2.243-9.71-.99-19.99-8.344-26.683zm-6.1-4.238c-12.464-6.518-30.54-19.667-40.47-29.46-.034-.036-.075-.067-.112-.1 16.822 4.68 31.166 15.346 40.583 29.56zM55.653 7.862l-.028.027C45.767 17.61 27.88 30.64 15.423 37.2c9.372-14.07 23.58-24.64 40.23-29.344zM3.445 76.81c0-.403.024-.798.03-1.2 5.81 12.026 12.05 31.1 14.58 44.497C8.9 108.072 3.445 93.067 3.445 76.81zm71.65 71.65a71.31 71.31 0 0 1-22.747-3.725c6.338-.79 14.26-1.224 22.658-1.224 3.362 0 6.634.08 9.772.21.192 1.33.47 2.64.818 3.94a70.24 70.24 0 0 1-10.502.807zm62.93-37.54a33.79 33.79 0 0 0-3.42-2.14c3.132-11.627 7.74-24.59 12.097-33.518.01.516.04 1.028.04 1.548 0 12.352-3.184 23.958-8.716 34.11zm8.176-42.772c-.2.8-.45 1.594-.74 2.377-.01.03-.01.058-.02.086a24.2 24.2 0 0 1-1.036 2.4c-4.485 8.95-9.303 22.356-12.597 34.438a33.855 33.855 0 0 0-13.31-2.702c-18.79 0-34.078 15.288-34.078 34.075 0 .62.04 1.237.074 1.854-3.06-.126-6.22-.21-9.478-.21-9.71 0-18.82.57-25.654 1.608-.54.08-1.08.14-1.626.184a25.21 25.21 0 0 1-1.995.09c-5.25 0-10.214-1.726-14.29-4.653a26.037 26.037 0 0 1-1.67-1.31l-.017-.02a24.538 24.538 0 0 1-7.43-11.136c0-.002 0-.003-.002-.005a24.78 24.78 0 0 1-.47-1.62 20.61 20.61 0 0 1-.38-1.79c-2.337-14.124-9.45-36.015-15.86-48.8a23.99 23.99 0 0 1-.955-2.18c-3.778-9.833-.736-21 7.192-27.64a23.85 23.85 0 0 1 2.04-1.54c.027-.02.05-.04.08-.056a24.38 24.38 0 0 1 2.297-1.365c12.7-6.585 31.32-20.11 41.51-30.16a23.4 23.4 0 0 1 1.505-1.35 21.54 21.54 0 0 1 1.455-1.11c4.117-2.94 9.055-4.55 14.27-4.55 5.196 0 10.116 1.6 14.224 4.516a19.892 19.892 0 0 1 1.49 1.134c.52.43 1.03.873 1.517 1.353 10.19 10.05 28.81 23.58 41.51 30.16.855.44 1.664.94 2.444 1.47.055.037.105.078.16.118a24.36 24.36 0 0 1 2.13 1.66h.004c6.98 6.06 10.016 15.683 7.71 24.667z" fill="#F6F5EF" fill-rule="evenodd" fill-opacity=".8"/></svg>