<svg width="150" height="152" viewBox="0 0 150 152" xmlns="http://www.w3.org/2000/svg"><title>Shape</title><path d="M75.006 51.612c-13.943 0-25.286 11.343-25.286 25.286 0 13.943 11.343 25.29 25.286 25.29 13.943 0 25.286-11.347 25.286-25.29 0-13.94-11.343-25.286-25.286-25.286zm0 47.515c-12.255 0-22.226-9.973-22.226-22.23 0-12.253 9.97-22.224 22.226-22.224 12.255 0 22.227 9.97 22.227 22.225 0 12.256-9.972 22.23-22.227 22.23zm16.3-49.712a4.477 4.477 0 0 0 3.457 1.623c1.048 0 2.07-.37 2.88-1.042a4.477 4.477 0 0 0 1.6-3.05 4.467 4.467 0 0 0-1.024-3.29l-4.948-5.935c-1.526-1.832-4.494-2.11-6.338-.578a4.478 4.478 0 0 0-1.6 3.052 4.47 4.47 0 0 0 1.024 3.288l4.947 5.933zm-2.416-9.92a1.435 1.435 0 0 1 2.027.186l4.95 5.935c.246.295.36.668.328 1.05-.035.385-.22.73-.514.977a1.426 1.426 0 0 1-.92.335c-.428 0-.83-.19-1.105-.522l-4.95-5.937a1.425 1.425 0 0 1-.326-1.05c.034-.384.216-.73.51-.976zm-50.643 46.71a4.505 4.505 0 0 0 .578-6.336l-4.95-5.94c-1.528-1.834-4.498-2.106-6.336-.576a4.472 4.472 0 0 0-1.6 3.048 4.47 4.47 0 0 0 1.022 3.288l4.95 5.94a4.49 4.49 0 0 0 3.456 1.618 4.51 4.51 0 0 0 2.88-1.044zm-8.935-8.472a1.433 1.433 0 0 1-.327-1.052c.035-.38.217-.728.512-.973a1.437 1.437 0 0 1 2.027.182l4.95 5.94a1.44 1.44 0 0 1-1.104 2.36c-.43 0-.833-.188-1.108-.517l-4.95-5.937zM39.83 48.538a4.485 4.485 0 0 0 3.457 1.618c1.047 0 2.07-.37 2.88-1.042a4.504 4.504 0 0 0 .575-6.335l-4.948-5.94c-1.53-1.837-4.495-2.112-6.338-.577a4.504 4.504 0 0 0-.577 6.337l4.95 5.938zm-2.415-9.923c.332-.277.684-.333.922-.333.43 0 .832.187 1.107.516l4.947 5.938a1.44 1.44 0 1 1-2.21 1.844l-4.948-5.938a1.44 1.44 0 0 1 .183-2.027zm36.832-8.726a4.476 4.476 0 0 0 4.89-4.07l.7-7.7a4.508 4.508 0 0 0-4.072-4.888 4.47 4.47 0 0 0-4.89 4.073l-.7 7.7a4.474 4.474 0 0 0 1.3 3.585 4.51 4.51 0 0 0 2.773 1.3zm-.324-12.31c.066-.728.688-1.302 1.548-1.302h.015a1.44 1.44 0 0 1 1.303 1.563l-.7 7.7a1.428 1.428 0 0 1-1.427 1.31l-.134-.008a1.435 1.435 0 0 1-1.303-1.564l.7-7.697zM45.51 118.76a4.47 4.47 0 0 0-4.888 4.072l-.7 7.695a4.483 4.483 0 0 0 1.3 3.593 4.48 4.48 0 0 0 3.186 1.315c2.34 0 4.264-1.76 4.476-4.09l.7-7.7a4.502 4.502 0 0 0-4.073-4.885zm.325 12.305a1.428 1.428 0 0 1-1.427 1.31l-.138-.008a1.43 1.43 0 0 1-1.3-1.562l.702-7.698c.066-.74.674-1.303 1.547-1.303a1.44 1.44 0 0 1 1.318 1.565l-.703 7.696zm75.057-59.65a4.478 4.478 0 0 0 4.478-4.09 4.508 4.508 0 0 0-4.075-4.89l-7.697-.7a4.464 4.464 0 0 0-3.59 1.3 4.5 4.5 0 0 0-1.296 2.77 4.466 4.466 0 0 0 1.022 3.29 4.483 4.483 0 0 0 3.05 1.6l7.696.702c.138.012.276.018.412.018zm-8.807-4.278a1.428 1.428 0 0 1-.328-1.05c.04-.43.247-.72.412-.887.268-.267.62-.417 1.12-.417.01 0 .02 0 .03.002l7.697.7c.79.073 1.375.775 1.304 1.563a1.43 1.43 0 0 1-1.428 1.31l-7.832-.71a1.433 1.433 0 0 1-.975-.51zm-39.552 43.44l-7.694-.697a4.45 4.45 0 0 0-3.595 1.297 4.496 4.496 0 0 0-1.295 2.77 4.46 4.46 0 0 0 1.022 3.29 4.48 4.48 0 0 0 3.05 1.602l7.7.7a4.48 4.48 0 0 0 4.888-4.074 4.464 4.464 0 0 0-1.024-3.287 4.484 4.484 0 0 0-3.053-1.6zm-.404 5.92l-7.832-.706a1.425 1.425 0 0 1-.976-.514 1.42 1.42 0 0 1-.327-1.05c.04-.43.247-.72.412-.888.267-.266.617-.415 1.118-.415.01 0 .022 0 .034.002l7.696.698c.383.034.73.217.976.512.245.293.362.667.326 1.05a1.43 1.43 0 0 1-1.43 1.31zm35.01-22.05l-7.715.473a4.504 4.504 0 0 0-4.215 4.767 4.503 4.503 0 0 0 4.768 4.214l7.714-.475a4.507 4.507 0 0 0 4.212-4.77c-.148-2.46-2.3-4.367-4.765-4.21zm.364 5.926l-7.71.476-.093.003c-.758 0-1.39-.595-1.436-1.35a1.42 1.42 0 0 1 .278-.942c.253-.347.642-.56 1.07-.587l7.81-.476a1.44 1.44 0 0 1 .082 2.877zm18.532-12.74l-5.94 4.95a4.484 4.484 0 0 0-1.617 3.456 4.49 4.49 0 0 0 4.502 4.5c1.047 0 2.07-.372 2.876-1.043l5.938-4.95a4.51 4.51 0 0 0 .576-6.34c-1.528-1.83-4.5-2.105-6.336-.573zm3.802 4.562l-5.94 4.95a1.433 1.433 0 0 1-2.024-.186 1.42 1.42 0 0 1-.335-.918c0-.427.19-.832.518-1.106l5.94-4.95c.33-.275.68-.332.917-.332a1.44 1.44 0 0 1 .923 2.543zM58.492 44.604c1.048 0 2.07-.37 2.877-1.042l5.936-4.947a4.468 4.468 0 0 0 1.6-3.05 4.47 4.47 0 0 0-1.023-3.288c-1.53-1.835-4.5-2.106-6.336-.576l-5.94 4.95a4.486 4.486 0 0 0-1.617 3.456 4.52 4.52 0 0 0 1.043 2.88 4.486 4.486 0 0 0 3.46 1.618zM57.568 39l5.94-4.947a1.43 1.43 0 0 1 2.024.182c.246.295.363.67.328 1.052a1.435 1.435 0 0 1-.512.976l-5.938 4.95c-.33.275-.682.332-.918.332a1.43 1.43 0 0 1-1.106-.518A1.44 1.44 0 0 1 57.568 39zM46.66 103.458a4.507 4.507 0 0 0 .577-6.337c-1.527-1.832-4.496-2.106-6.337-.574l-5.938 4.948a4.488 4.488 0 0 0-1.62 3.456c0 1.046.372 2.07 1.045 2.878a4.48 4.48 0 0 0 3.457 1.62c1.05 0 2.072-.372 2.878-1.043l5.938-4.947zm-8.816 2.932c-.43 0-.833-.188-1.106-.518a1.44 1.44 0 0 1 .183-2.027l5.94-4.948c.33-.277.683-.333.92-.333.43 0 .83.188 1.105.516.508.61.426 1.522-.184 2.03l-5.938 4.948c-.328.276-.68.332-.918.332zM16.54 55.19l-5.94 4.948a4.49 4.49 0 0 0-1.62 3.458c0 1.048.372 2.07 1.045 2.88a4.5 4.5 0 0 0 6.337.576L22.3 62.1a4.508 4.508 0 0 0 .574-6.338c-1.53-1.832-4.497-2.108-6.335-.574zm3.8 4.563l-5.937 4.95a1.42 1.42 0 0 1-.92.332 1.435 1.435 0 0 1-.923-2.543l5.938-4.95c.332-.278.684-.335.92-.335.43 0 .832.188 1.104.517.508.61.426 1.52-.183 2.028zm95.94-1.916c.138.012.277.018.414.018a4.473 4.473 0 0 0 4.476-4.09l.7-7.697a4.464 4.464 0 0 0-1.026-3.288 4.47 4.47 0 0 0-3.05-1.6 4.48 4.48 0 0 0-4.887 4.073l-.7 7.7a4.49 4.49 0 0 0 1.3 3.588 4.49 4.49 0 0 0 2.773 1.297zm-.323-12.308c.066-.73.685-1.304 1.547-1.304h.014c.383.036.73.22.98.515.244.295.36.666.325 1.05l-.702 7.697a1.427 1.427 0 0 1-1.426 1.307l-.138-.006a1.434 1.434 0 0 1-1.3-1.562l.7-7.697zm24.998-3.947C130.31 21.766 110.98 7.293 88.093 3.256 84.13 1.136 79.663 0 75.006 0c-4.686 0-9.18 1.153-13.164 3.303-22.667 4.076-41.824 18.39-52.46 37.99-7.715 6.8-11.072 17.488-8.56 27.49a75.12 75.12 0 0 0-.438 8.027c0 19.195 7.282 36.716 19.222 49.965 3.77 10.793 14.16 18.492 25.86 18.604a74.284 74.284 0 0 0 29.628 6.14c4.22 0 8.35-.39 12.38-1.07.023.002.045.01.07.01.158 0 .317-.025.475-.075.02-.007.033-.024.055-.032.136-.024.275-.04.412-.066-.017-.046-.03-.096-.046-.14.517-.383.768-1.048.56-1.692a31.005 31.005 0 0 1-1.53-9.644c0-17.1 13.914-31.014 31.018-31.014 7.02 0 13.644 2.288 19.155 6.615a1.527 1.527 0 0 0 2.147-.256c.095-.123.148-.262.2-.402a74.22 74.22 0 0 0 9.814-36.942c0-2.89-.182-5.737-.503-8.54 2.242-9.714-.992-19.993-8.345-26.687zm-6.1-4.233c-12.464-6.517-30.54-19.666-40.47-29.46-.034-.035-.075-.066-.112-.1 16.822 4.68 31.166 15.347 40.583 29.56zM55.653 7.864c-.01.01-.02.017-.028.026-9.858 9.724-27.745 22.753-40.202 29.317 9.372-14.068 23.58-24.64 40.23-29.343zM3.445 76.81c0-.403.024-.798.03-1.2 5.81 12.026 12.05 31.1 14.58 44.497C8.9 108.072 3.446 93.067 3.446 76.81zm71.65 71.65a71.31 71.31 0 0 1-22.747-3.725c6.338-.79 14.26-1.224 22.658-1.224 3.362 0 6.634.076 9.772.21.192 1.33.47 2.64.818 3.936-3.43.515-6.932.803-10.502.803zm62.93-37.54a33.79 33.79 0 0 0-3.42-2.14c3.132-11.627 7.74-24.59 12.097-33.518.01.516.04 1.028.04 1.548 0 12.352-3.184 23.958-8.716 34.11zm8.176-42.772c-.204.8-.45 1.594-.74 2.377-.01.03-.015.058-.027.086-.3.81-.643 1.61-1.037 2.395-4.485 8.95-9.303 22.353-12.597 34.435a33.855 33.855 0 0 0-13.312-2.703c-18.79 0-34.077 15.287-34.077 34.074 0 .622.04 1.237.074 1.854-3.06-.126-6.217-.21-9.476-.21-9.708 0-18.82.57-25.654 1.608-.538.08-1.08.14-1.626.182-.665.054-1.332.09-1.996.09-5.25 0-10.214-1.725-14.29-4.652a26.037 26.037 0 0 1-1.67-1.308l-.017-.018a24.538 24.538 0 0 1-7.43-11.138c0-.002 0-.003-.002-.005-.172-.535-.334-1.07-.47-1.618a20.61 20.61 0 0 1-.38-1.79c-2.338-14.123-9.45-36.014-15.86-48.8a23.99 23.99 0 0 1-.956-2.18C.88 60.997 3.922 49.83 11.85 43.19a23.85 23.85 0 0 1 2.04-1.54c.026-.018.05-.038.078-.056.735-.49 1.497-.95 2.297-1.365 12.702-6.582 31.322-20.11 41.51-30.16a23.4 23.4 0 0 1 1.505-1.345 21.54 21.54 0 0 1 1.456-1.11c4.118-2.94 9.056-4.553 14.272-4.553 5.195 0 10.115 1.6 14.223 4.516.278.195.552.395.822.6.226.175.45.35.67.536.52.43 1.03.876 1.516 1.356 10.19 10.05 28.81 23.58 41.51 30.16.857.443 1.666.943 2.446 1.473.056.036.106.077.16.117.748.515 1.456 1.07 2.133 1.657 0 0 0 .002.003.003 6.98 6.06 10.014 15.684 7.71 24.668z" fill="#F6F5EF" fill-rule="evenodd" fill-opacity=".8"/></svg>