<svg width="151" height="184" viewBox="0 0 151 184" xmlns="http://www.w3.org/2000/svg"><title>Shape</title><path d="M100.306 129.93c2.933-1.63 5.542-3.67 8.033-5.84.77-.674.85-1.842.182-2.614a1.85 1.85 0 0 0-2.607-.184 52.78 52.78 0 0 1-7.51 5.463 1.848 1.848 0 0 0-.636 2.54c.567.932 1.57 1.173 2.536.636zM90.65 28.26a1.85 1.85 0 0 0 1.847-1.85v-3.722a1.85 1.85 0 0 0-3.696 0v3.72a1.85 1.85 0 0 0 1.847 1.852zm59.848 53.546c0-27.47-14.463-53.136-37.818-67.445l2.107-4.66c.45-.997.117-1.98-.922-2.45L99.35.666a1.846 1.846 0 0 0-2.448.924l-5.327 11.804a70.78 70.78 0 0 0-19.94-2.87C32.413 10.522.503 42.5.5 81.806c0 20.183 8.052 44.42 32.957 60.238l-5.217 11.544c-.477 1.056-.28 1.904.923 2.45l14.518 6.585c1.003.46 1.95.178 2.445-.924l2.013-4.458a78.61 78.61 0 0 0 23.498 3.59v12.71c-11.23.05-38.594.557-42.255 4.227-.345.347-.54.818-.54 1.31v2.898a1.85 1.85 0 0 0 1.848 1.852h85.595a1.848 1.848 0 0 0 1.85-1.852v-2.9a1.85 1.85 0 0 0-.542-1.31c-3.72-3.725-31.478-4.19-42.258-4.226v-12.806c41.774-1.944 75.166-36.6 75.166-78.93zM99.508 4.802l11.15 5.055-4.39 9.717a70.712 70.712 0 0 0-11.15-5.045l4.39-9.728zM79.186 93.81l-1.37-4.19 4.096-6.866a1.854 1.854 0 0 0-.165-2.13L76.68 74.51a1.867 1.867 0 0 0-.946-.606L60.57 69.85l-2.993-5.538-1.13-8.102 3.676-6.27 7.345-4.135 8.288-1.426 16.578 3.715-.24.635a1.86 1.86 0 0 0 .512 2.052l8.418 7.348c.97.848 2.252.574 2.84-.514l.26-.48 11.202 5.866c.03.015.057.03.09.043H114.1c-1.337 0-1.957.978-1.837 2.057l1.456 13.043 1.72 11.52c.112.73.642 1.324 1.35 1.515l5.006 1.342-3.82 4.645-5.322 1.916c-.676.243-.9.473-1.132 1.178l-.688 2.147-5.286 3.176a1.86 1.86 0 0 0-.78.928l-4.47 11.764-7.55 2.276a1.85 1.85 0 0 0-1.225 1.2l-.763 2.352h-4.09c-.284 0-.57.066-.825.194l-8.572 4.293-6.393-1.977 1.197-15.822 4.518-4.688a1.86 1.86 0 0 0 .478-.908l2.174-10.433a1.91 1.91 0 0 0-.06-.95zm41.205-5.497l-1.48-.396-1.53-10.252-.93-8.333 3.04 9.642v7.75c0 1 .414 1.304.9 1.59zm-.69 12.167c.313-.115.59-.31.8-.567l5.974-7.257c.76-.924.71-2.522-.948-2.967l-4.163-1.116c.078-.002 6.937-.977 6.937-.977.36-.05.696-.208.965-.45l4.89-4.352c.82-.732.754-2.067.028-2.74 0 0-4.142-3.982-3.983-3.866l8.852 6.536c-.12 8.958-1.973 17.506-5.26 25.305l-15.644-6.985 1.552-.565zm12.928-27.1l-4.08-5.748a1.838 1.838 0 0 0-2.163-.655 1.852 1.852 0 0 0-1.18 1.935l.902 8.075c.05.44.258.85.58 1.152l3.49 3.24-2.95 2.628-4.046.58v-5.9c0-.19-.028-.378-.086-.558l-4.346-13.79a1.844 1.844 0 0 0-1.76-1.295h-.045c.26-.118.494-.298.68-.533l2.807-3.54c.82-1.032.672-2.127-.587-2.792l-6.604-3.47-.673-4.167a1.838 1.838 0 0 0-.783-1.233l-5.408-3.702-4.237-6.325a1.846 1.846 0 0 0-1.932-.776l-8.32 1.844s-5.61-1.22-5.64-1.225l6.902-3.742 6.11-.95a1.852 1.852 0 0 0 1.55-2.04l-.332-2.886 1.976-.235a1.85 1.85 0 0 0 .652-.206l2.03-1.085 7.783 2.44c14.976 11.657 24.943 29.48 26.046 49.638l-6.338-4.678zM71.636 14.225c11.67 0 22.655 2.99 32.237 8.237l-2.2 1.174-3.46.413a1.85 1.85 0 0 0-1.616 2.05l.34 2.95-4.67.723c-.207.034-.813.32-.813.32-.092-.103-.166-.218-.283-.3l-2.444-1.723a1.846 1.846 0 0 0-2.574.448c-.588.837-.388 1.992.447 2.58l1.304.922-3.033 1.644-4.273-2.404a1.846 1.846 0 0 0-2.428.567L75 36.455c-.586.855-.488 2.226.825 2.763l6.88 2.81c.51.21 1.08.18 1.57-.08l1.94-1.04 5.284 1.152c.256.056.528.056.79 0l2.325-.515 3.11 4.282c.498.68 1.664 1.078 2.585.405a1.856 1.856 0 0 0 .405-2.587l-2.16-2.972 1.22-.27 3.733 5.572c.13.196.298.365.492.498l5.048 3.454.693 4.296c.095.576.45 1.074.966 1.344l5.442 2.86-.465.59-11.464-6.007a1.846 1.846 0 0 0-2.483.76l-.027.053-5.71-4.98.54-1.427c.37-.982.022-2.16-1.323-2.463l-19.014-4.27a1.935 1.935 0 0 0-.715-.017l-8.963 1.54c-.21.038-.41.108-.593.212l-8.06 4.537c-.284.16-.52.392-.688.676L52.93 54.89c-.21.36-.294.78-.236 1.194l1.266 9.07c.032.22.1.432.206.626L57.7 72.31c.24.448.655.774 1.147.907l15.365 4.11 3.855 4.65-.542.91-57.255-25.58.937-4.354c.067-.31.052-.632-.04-.936L17.82 41.132c12.322-16.33 31.857-26.907 53.816-26.907zm12.907 23.378l-1.246.667-3.952-1.615.917-1.337 3.687 2.076c.186.103.388.174.593.21zM4.196 81.806c0-13.58 4.032-26.226 10.94-36.83l2.356 7.67-1.714 7.962c-.112.52.003 1.06.314 1.485l7.343 10.033v1.834L18.1 78.03c-.282.215-.495.504-.617.837l-3.01 8.218H10.89a1.85 1.85 0 0 0-1.85 1.852v2.835l-2.93 5.976a67.958 67.958 0 0 1-1.914-15.942zm39.324 76.678l-11.15-5.057 4.28-9.468a70.61 70.61 0 0 0 11.15 5.052l-4.28 9.472zM7.617 103.072l4.93-10.05c.125-.255.192-.535.192-.816v-1.413h3.025a1.85 1.85 0 0 0 1.735-1.215l3.268-8.926 5.633-4.298c.46-.35.73-.894.73-1.474v-3.357c0-.395-.125-.778-.356-1.095l-6.693-9.144 55.536 24.81-1.402 2.353a1.855 1.855 0 0 0-.17 1.525l1.475 4.523-1.964 9.424-4.61 4.784c-.3.31-.48.716-.512 1.146l-1.357 17.963a1.85 1.85 0 0 0 1.298 1.907l8.51 2.63c.384.12 1.28-.063 1.373-.112l8.844-4.43h4.993c.8 0 1.51-.516 1.757-1.28l.88-2.708 7.492-2.26c.55-.168.99-.58 1.197-1.116l4.573-12.013 5.335-3.202a1.85 1.85 0 0 0 .81-1.022l.25-.79 17.864 7.98c-10.972 22.472-34.018 37.99-60.618 37.99-29.292 0-54.856-18.564-64.017-46.314zm106.816 77.016l-81.898.04v-.027c3.526-1.455 19.073-2.86 41.192-2.86 21.9 0 37.27 1.407 40.706 2.848zm-42.797-22.963a74.99 74.99 0 0 1-21.963-3.28l1.66-3.68a71.754 71.754 0 0 0 20.303 2.923c39.223 0 71.136-31.977 71.136-71.282 0-25.38-13.315-47.692-33.305-60.323l1.68-3.72c22.03 13.686 35.656 38.016 35.656 64.043 0 41.53-33.72 75.32-75.167 75.32z" fill="#F6F5EF" fill-rule="evenodd"/></svg>