<svg width="151" height="184" viewBox="0 0 151 184" xmlns="http://www.w3.org/2000/svg"><title>Shape</title><path d="M100.306 129.93c2.933-1.63 5.542-3.67 8.033-5.84.77-.674.85-1.842.18-2.614a1.85 1.85 0 0 0-2.61-.184 52.78 52.78 0 0 1-7.51 5.463 1.848 1.848 0 0 0-.64 2.54c.562.932 1.57 1.173 2.53.636zM90.65 28.26a1.85 1.85 0 0 0 1.847-1.85v-3.722a1.85 1.85 0 0 0-3.696 0v3.72a1.85 1.85 0 0 0 1.85 1.852zm59.848 53.546c0-27.47-14.463-53.136-37.818-67.445l2.107-4.66c.45-.99.117-1.98-.922-2.45L99.35.67a1.846 1.846 0 0 0-2.448.924L91.575 13.4a70.78 70.78 0 0 0-19.94-2.87C32.413 10.52.503 42.5.5 81.804c0 20.184 8.052 44.42 32.957 60.24l-5.217 11.543c-.477 1.056-.28 1.904.923 2.45l14.518 6.585c1.01.46 1.95.178 2.45-.924l2.02-4.46a78.61 78.61 0 0 0 23.5 3.59v12.71c-11.23.05-38.593.555-42.254 4.225-.345.347-.54.818-.54 1.31v2.898a1.85 1.85 0 0 0 1.848 1.86H116.3a1.848 1.848 0 0 0 1.85-1.85v-2.9a1.85 1.85 0 0 0-.544-1.31c-3.72-3.724-31.48-4.19-42.26-4.225v-12.81c41.774-1.942 75.166-36.6 75.166-78.93zM99.508 4.802l11.15 5.055-4.39 9.717a70.712 70.712 0 0 0-11.15-5.045l4.39-9.73zM79.186 93.81l-1.37-4.19 4.096-6.866a1.854 1.854 0 0 0-.165-2.13L76.68 74.51a1.867 1.867 0 0 0-.946-.606L60.57 69.85l-2.993-5.538-1.13-8.102 3.676-6.27 7.345-4.135 8.288-1.426 16.578 3.71-.24.63a1.86 1.86 0 0 0 .512 2.05l8.418 7.35c.97.843 2.252.57 2.84-.52l.26-.48L115.326 63c.03.016.057.03.09.044H114.1c-1.337 0-1.957.978-1.837 2.057l1.456 13.05 1.72 11.52a1.86 1.86 0 0 0 1.35 1.52l5 1.34-3.82 4.65-5.32 1.915c-.68.243-.9.473-1.13 1.178l-.69 2.15-5.29 3.177a1.86 1.86 0 0 0-.78.927l-4.47 11.768-7.55 2.277a1.85 1.85 0 0 0-1.23 1.2l-.76 2.352h-4.09c-.287 0-.57.066-.83.194l-8.57 4.294-6.39-1.978 1.194-15.822 4.517-4.687a1.86 1.86 0 0 0 .48-.907l2.174-10.435a1.91 1.91 0 0 0-.06-.95zm41.205-5.497l-1.48-.396-1.53-10.252-.93-8.333 3.04 9.642v7.75c0 1 .42 1.304.9 1.59zm-.69 12.167c.32-.115.59-.31.8-.567l5.98-7.257c.76-.924.71-2.522-.95-2.967l-4.16-1.12c.08 0 6.94-.98 6.94-.98.36-.05.7-.21.97-.45l4.89-4.35c.82-.73.752-2.07.026-2.74 0 0-4.142-3.98-3.983-3.87l8.853 6.532c-.12 8.96-1.975 17.507-5.26 25.306l-15.646-6.986 1.55-.562zm12.93-27.1l-4.08-5.748a1.838 1.838 0 0 0-2.16-.655 1.852 1.852 0 0 0-1.18 1.935l.9 8.075c.05.44.26.85.58 1.152l3.49 3.24-2.95 2.62-4.04.58v-5.9c0-.19-.03-.38-.083-.56l-4.346-13.79a1.844 1.844 0 0 0-1.76-1.3h-.043a1.82 1.82 0 0 0 .68-.534l2.807-3.54c.82-1.03.673-2.127-.586-2.79l-6.608-3.47-.674-4.17a1.838 1.838 0 0 0-.78-1.23l-5.41-3.7-4.238-6.327a1.846 1.846 0 0 0-1.933-.776l-8.32 1.842-5.64-1.226 6.902-3.74 6.11-.95a1.852 1.852 0 0 0 1.55-2.04l-.333-2.884 1.976-.236a1.85 1.85 0 0 0 .65-.21l2.03-1.085 7.782 2.44c14.976 11.658 24.943 29.48 26.046 49.64l-6.336-4.68zM71.64 14.225c11.67 0 22.655 2.99 32.237 8.237l-2.2 1.174-3.46.413A1.85 1.85 0 0 0 96.6 26.1l.34 2.95-4.67.72c-.208.032-.814.32-.814.32-.092-.105-.166-.22-.283-.3l-2.442-1.725a1.846 1.846 0 0 0-2.57.447 1.853 1.853 0 0 0 .45 2.58l1.308.922-3.033 1.643-4.27-2.4a1.846 1.846 0 0 0-2.43.565L75 36.455c-.586.855-.488 2.226.825 2.763l6.88 2.81c.51.21 1.08.18 1.57-.08l1.94-1.04L91.5 42.06c.255.056.527.056.79 0l2.324-.515 3.11 4.282c.498.68 1.664 1.078 2.585.405a1.856 1.856 0 0 0 .4-2.587l-2.16-2.972 1.22-.27 3.73 5.572c.13.196.3.365.49.498l5.043 3.454.693 4.296c.095.576.45 1.074.966 1.344l5.442 2.86-.467.59-11.464-6.007a1.846 1.846 0 0 0-2.485.76l-.028.053-5.71-4.98.54-1.427c.37-.982.02-2.16-1.324-2.463l-19.017-4.27a1.935 1.935 0 0 0-.715-.017l-8.964 1.54a1.87 1.87 0 0 0-.594.212l-8.06 4.537a1.86 1.86 0 0 0-.687.676l-4.256 7.26c-.21.36-.296.78-.238 1.2l1.268 9.07c.033.22.1.43.207.63l3.538 6.53c.24.45.653.778 1.145.91l15.365 4.11 3.855 4.65-.54.91L20.25 57.32l.938-4.354a1.87 1.87 0 0 0-.04-.936l-3.34-10.89c12.325-16.333 31.86-26.91 53.82-26.91zm12.907 23.378l-1.246.667-3.95-1.615.92-1.337 3.69 2.076c.187.103.39.174.594.21zM4.195 81.806c0-13.58 4.033-26.226 10.94-36.83l2.357 7.67-1.714 7.962c-.112.52.003 1.06.314 1.485l7.343 10.033v1.834L18.1 78.03a1.85 1.85 0 0 0-.617.837l-3.01 8.218H10.89a1.85 1.85 0 0 0-1.85 1.852v2.835l-2.93 5.976a67.958 67.958 0 0 1-1.914-15.942zm39.325 76.678l-11.15-5.057 4.28-9.468a70.61 70.61 0 0 0 11.15 5.05l-4.28 9.47zM7.617 103.072l4.93-10.05a1.86 1.86 0 0 0 .192-.816v-1.413h3.02a1.85 1.85 0 0 0 1.73-1.215l3.263-8.926 5.633-4.298c.46-.35.73-.894.73-1.474v-3.357c0-.395-.125-.778-.356-1.095l-6.692-9.144 55.536 24.81-1.4 2.353a1.855 1.855 0 0 0-.17 1.525l1.476 4.523-1.965 9.424-4.61 4.78c-.3.31-.48.71-.51 1.14L67.07 127.8a1.85 1.85 0 0 0 1.298 1.906l8.51 2.63c.388.12 1.28-.064 1.377-.113l8.844-4.43h4.99c.8 0 1.51-.516 1.76-1.28l.88-2.708 7.49-2.26c.55-.17.99-.58 1.194-1.118l4.572-12.015 5.333-3.2a1.85 1.85 0 0 0 .81-1.025l.25-.79 17.862 7.98c-10.973 22.472-34.02 37.99-60.62 37.99-29.29 0-54.855-18.564-64.016-46.314zm106.816 77.016l-81.898.04v-.027c3.526-1.45 19.073-2.86 41.192-2.86 21.9 0 37.27 1.41 40.706 2.85zm-42.797-22.963a74.99 74.99 0 0 1-21.963-3.28l1.66-3.68a71.754 71.754 0 0 0 20.303 2.923c39.223 0 71.136-31.977 71.136-71.282 0-25.38-13.315-47.692-33.305-60.323l1.68-3.72c22.03 13.686 35.656 38.016 35.656 64.043 0 41.53-33.72 75.32-75.167 75.32z" fill="#F6F5EF" fill-rule="evenodd"/></svg>