<svg width="150" height="150" viewBox="0 0 150 150" xmlns="http://www.w3.org/2000/svg"><title>Group</title><g fill="#F6F5EF" fill-rule="evenodd"><path d="M145.784 17.637l3.748-3.752a1.598 1.598 0 0 0 0-2.257L138.372.466a1.59 1.59 0 0 0-1.13-.466c-.41 0-.817.156-1.13.468l-3.75 3.752-1.6-1.605a8.922 8.922 0 0 0-6.326-2.61c-2.294 0-4.59.87-6.328 2.61L103.922 16.8c-3.19 3.194-3.416 8.232-.75 11.73l-2.525 2.526-6.1-6.1c-.383-.383-.94-.582-1.49-.582-.41 0-.82.108-1.153.338L48.392 54.48c-.784.536-.875 1.524-.205 2.195l1.22 1.22L13.42 93.88l-.61-.61L0 106.086l21.35 21.345 26.002-26 1.22 1.22-26.002 26L43.92 150l12.808-12.81-.608-.607 35.988-35.992 1.22 1.23c.3.3.665.45 1.026.45.44 0 .874-.22 1.168-.65l29.77-43.51c.535-.78.424-1.97-.246-2.643l-6.1-6.1 2.527-2.523c1.593 1.215 3.487 1.858 5.404 1.858a8.92 8.92 0 0 0 6.326-2.61l14.19-14.183c3.477-3.48 3.474-9.174 0-12.655l-1.61-1.6zM48.874 98.69l13.954-13.96 2.438 2.44-13.956 13.96-2.437-2.44zM4.26 106.084l8.24-8.24 17.087 17.088-8.238 8.238-17.09-17.085zm40.89-6.716l-13.12 13.12L15.55 96.01l29.28-29.277 15.56 15.56L44.302 98.38l.847.99zm-18.318 29.28l8.238-8.24 17.088 17.09-8.24 8.242-17.086-17.093zm27.156 5.802L37.51 117.97l13.12-13.122.993.85L67.71 89.61l15.558 15.56-29.28 29.28zm31.718-31.72L47.27 64.294l4.27-4.27L89.975 98.46l-4.27 4.272zm8.654-4.766L52.034 55.64l40.93-28.004 29.403 29.402L94.36 97.965zm42.883-94.37l9.157 9.16-2.748 2.75-9.157-9.16 2.748-2.75zm-32.397 27.52l14.04 14.035-1.907 1.9-14.04-14.04 1.9-1.908zm40.41-1.354L131.07 43.95a5.884 5.884 0 0 1-4.194 1.722 5.893 5.893 0 0 1-4.197-1.724L106.05 27.32a5.94 5.94 0 0 1 .002-8.39l14.186-14.185a5.886 5.886 0 0 1 4.198-1.727c1.59 0 3.08.612 4.194 1.725l16.626 16.626a5.943 5.943 0 0 1 0 8.39z"/><path d="M41.355 95.884l-11.692-11.69 2.132-2.133 11.692 11.69zm24.457 24.456L54.12 108.65l2.128-2.13 11.693 11.69zm58.225-59.378l-26.18 38.263 2.73 1.964-1.368 2a11 11 0 0 0-1.82-.16 11.03 11.03 0 0 0-8.92 4.56 10.992 10.992 0 0 0-.03 12.82c.28.39.74.63 1.22.63s.94-.23 1.22-.63l3.75-5.19a1.5 1.5 0 0 0 .28-1.006 2.462 2.462 0 0 1 .45-1.66c.77-1.07 2.4-1.34 3.48-.564a2.497 2.497 0 0 1 .56 3.48 2.47 2.47 0 0 1-1.44.946c-.35.084-.66.29-.87.582l-3.746 5.19a1.505 1.505 0 0 0 .776 2.32c1.054.326 2.147.49 3.25.49a11.03 11.03 0 0 0 8.91-4.55 10.934 10.934 0 0 0 1.94-8.192 10.95 10.95 0 0 0-1.684-4.306l1.14-1.666 3.886 2.79 10.97-16.42c1.053-1.576 2.283-4.38 2.73-6.22 0 0 2.77-11.36 3.61-15.71.84-4.35-.64-6.985-4.86-9.78zm-20.17 57.737a8.047 8.047 0 0 1-6.636 3.3l2.03-2.81a5.448 5.448 0 0 0 2.61-1.95 5.515 5.515 0 0 0-1.24-7.69 5.48 5.48 0 0 0-3.22-1.04 5.525 5.525 0 0 0-4.465 2.28 5.46 5.46 0 0 0-1.025 3.08l-2.03 2.81a7.974 7.974 0 0 1 1.046-7.34 8.01 8.01 0 0 1 6.48-3.31c1.68 0 3.295.52 4.665 1.51a7.916 7.916 0 0 1 3.204 5.2 7.92 7.92 0 0 1-1.404 5.944zm.632-13.06c-.22-.18-.44-.37-.67-.53a11.07 11.07 0 0 0-1.63-.96l.82-1.21 2.22 1.59-.755 1.1zm21.43-35.48c-.82 4.22-3.55 15.452-3.58 15.563-.37 1.512-1.45 3.97-2.31 5.262l-9.24 13.826-8.8-6.322 22.695-33.17c1.5 1.543 1.605 2.916 1.233 4.85v-.003zm-6.09-48.43a2.254 2.254 0 0 0 3.193-.01 2.26 2.26 0 0 0-.01-3.2l-.12-.12a2.262 2.262 0 0 0-3.188 3.204l.123.122zm11.615 5.22a2.26 2.26 0 0 0-3.206 3.184l.12.122a2.247 2.247 0 0 0 1.606.664 2.26 2.26 0 0 0 1.605-3.853l-.12-.12zm-5.916 5.464a7.926 7.926 0 0 1-5.643-2.338 7.923 7.923 0 0 1-2.338-5.645 1.507 1.507 0 0 0-3.02 0c0 2.936 1.143 5.697 3.22 7.774a10.926 10.926 0 0 0 7.773 3.223 1.506 1.506 0 0 0 0-3.015zm-99.11 24.42a1.5 1.5 0 0 0 1.36-.21l5.19-3.744a1.51 1.51 0 0 0 .58-.864 2.476 2.476 0 0 1 .95-1.44c1.08-.78 2.707-.51 3.48.562a2.5 2.5 0 0 1-.563 3.482c-.47.34-1.06.496-1.655.445-.36-.03-.717.07-1.008.28l-5.19 3.75a1.508 1.508 0 0 0 .005 2.448 10.968 10.968 0 0 0 6.406 2.044 10.91 10.91 0 0 0 6.42-2.078c3.493-2.528 5.053-6.74 4.39-10.73l2.01-1.377 1.962 2.732 38.264-26.18c-2.3-3.468-4.493-5.085-7.614-5.085-.674 0-1.394.077-2.167.226-4.344.84-15.706 3.61-15.706 3.61-1.85.45-4.65 1.68-6.23 2.73L40.9 38.41l2.794 3.888-1.667 1.14a11.044 11.044 0 0 0-6.068-1.828c-2.32 0-4.55.72-6.43 2.082a10.985 10.985 0 0 0-4.07 12.16c.144.47.503.835.963.99zM59 29.95c1.297-.863 3.755-1.944 5.263-2.31.114-.028 11.34-2.76 15.567-3.576a8.464 8.464 0 0 1 1.596-.17c1.09 0 2.085.283 3.246 1.407L51.504 48l-6.33-8.806L59 29.95zM47.052 46.968l-1.207.825a11.202 11.202 0 0 0-.96-1.625c-.167-.23-.355-.443-.54-.66l1.113-.76 1.593 2.22zm-15.752-.83a7.926 7.926 0 0 1 4.667-1.514 8.007 8.007 0 0 1 6.477 3.306c2.577 3.57 1.77 8.57-1.797 11.145-2.11 1.52-4.895 1.906-7.337 1.045l2.807-2.028a5.416 5.416 0 0 0 3.08-1.024c2.46-1.775 3.016-5.222 1.24-7.69a5.525 5.525 0 0 0-4.467-2.282c-1.163 0-2.276.36-3.22 1.044a5.48 5.48 0 0 0-1.942 2.6l-2.81 2.03a7.963 7.963 0 0 1 3.302-6.635z"/></g></svg>