<svg width="150" height="150" viewBox="0 0 150 150" xmlns="http://www.w3.org/2000/svg"><title>Shape</title><path d="M134.207 15.796C123.677 5.266 109.875 0 96.077 0c-13.802 0-27.6 5.265-38.13 15.796C48.17 25.573 42.94 38.172 42.24 50.973h-.005c-.768 9.61-4.488 18.924-11.823 26.26a29.842 29.842 0 0 0-8.277 15.822l1.057 1.058-5.037 5.038c-1.176-.11-2.41.31-3.18 1.23a3.602 3.602 0 0 0-.813 2.77l-2.36 2.36c-1.177-.11-2.412.31-3.186 1.24a3.59 3.59 0 0 0-.81 2.76l-2.366 2.36c-1.176-.11-2.407.31-3.18 1.24a3.626 3.626 0 0 0-.05 4.593v5.533c0 .51.13 1.07.322 1.62l-1.472 1.47c-.587.59-1.06 1.74-1.06 2.565v9.718c0 .83.475 1.976 1.06 2.56l7.79 7.79c.582.586 1.732 1.06 2.556 1.06h9.714c.824 0 1.975-.474 2.558-1.06l1.31-1.31c.704.324 1.472.53 2.157.53h5.478c1.227 0 2.748-.63 3.618-1.5l.44-.44c.29.07.58.12.88.12a3.61 3.61 0 0 0 2.78-1.29c.88-1.05 1.05-2.45.59-3.645l1.68-1.676a3.65 3.65 0 0 0 1.32.256 3.62 3.62 0 0 0 2.776-1.29c.88-1.05 1.047-2.45.584-3.643l1.675-1.68a3.65 3.65 0 0 0 1.315.256c1.074 0 2.087-.47 2.775-1.29.88-1.04 1.047-2.444.584-3.64l2.07-2.07 1.26 1.26a29.78 29.78 0 0 0 15.815-8.28c7.34-7.34 16.65-11.055 26.26-11.825v-.01c12.797-.7 25.398-5.93 35.17-15.71 21.066-21.06 21.066-55.21.008-76.27zM14.555 106.994l1.212-1.216 30.74 25.797-1.215 1.216L14.554 107zm-6.357 6.355l1.213-1.22 30.74 25.79-1.21 1.21L8.2 113.35zm13.4 33.43a1.79 1.79 0 0 1-.476.21h-9.658a1.827 1.827 0 0 1-.492-.19l-7.752-7.75a1.723 1.723 0 0 1-.22-.48l-.002-9.66a1.76 1.76 0 0 1 .185-.492l1.056-1.053 18.37 18.38-1.02 1.017zm5.55-1.62c-.427 0-1.197-.32-1.498-.62l-3.555-3.56h-.006L9.38 128.27v-.005l-3.56-3.556c-.307-.31-.62-1.07-.62-1.5v-2.92l28.9 24.26c-.31.29-1.064.61-1.485.61H27.14zm10.892-2.04a.622.622 0 0 1-.877.07l-31.95-26.81v-.14H5.05l-.413-.35a.634.634 0 0 1-.078-.88.614.614 0 0 1 .47-.22.62.62 0 0 1 .39.143l32.522 27.295a.63.63 0 0 1 .08.877zm6.355-6.36a.617.617 0 0 1-.48.22.62.62 0 0 1-.397-.15L10.99 109.54a.634.634 0 0 1-.078-.88.622.622 0 0 1 .878-.073l32.526 27.295a.63.63 0 0 1 .08.875zm6.354-6.36a.62.62 0 0 1-.48.22.616.616 0 0 1-.4-.15l-32.53-27.28a.63.63 0 0 1-.08-.88.62.62 0 0 1 .874-.074l32.53 27.29a.63.63 0 0 1 .08.872zm.89-3.98L20.9 100.63l4.4-4.407 11.034 11.035c.01.005.012.017.02.025l6.357 6.356.028.02 10.84 10.84-1.93 1.93zm-13.16-25.49l14.17-14.16a2.982 2.982 0 0 1 2.113-.876 2.98 2.98 0 0 1 2.118.87l6.356 6.35a3.006 3.006 0 0 1 .01 4.237l-14.17 14.17a2.98 2.98 0 0 1-2.12.873 2.982 2.982 0 0 1-2.09-.856l-6.403-6.4a3.002 3.002 0 0 1 .023-4.21zm22.25-21.58a1.5 1.5 0 0 0 .66.17c.23 0 .47-.06.68-.167a2.96 2.96 0 0 1 1.433.784l2.093 2.1c.01.01.01.02.02.03l2.12 2.12c.01.01.02.015.03.03l2.09 2.09c.41.412.67.92.79 1.46a1.47 1.47 0 0 0 0 1.305 2.964 2.964 0 0 1-.796 1.47l-2.97 2.97A5.935 5.935 0 0 0 65.36 91l-6.356-6.354a5.91 5.91 0 0 0-2.706-1.53l2.97-2.97a2.946 2.946 0 0 1 1.458-.793zm19.29-39.83c2.22-.656 5.37.26 7.4 1.58 1.11.72 1.623 1.373 1.79 1.74L77.94 64.916l-.264-.264a1.498 1.498 0 0 0-2.12 0 1.498 1.498 0 0 0 0 2.12l.66.66-10.59 10.59a5.954 5.954 0 0 0-1.608-1.118l2.838-4.02c.07-.098.127-.206.172-.317l12.99-33.047zm27.14 21.27c.36.166 1.02.676 1.74 1.79 1.313 2.025 2.225 5.183 1.574 7.406L77.45 82.98c-.112.043-.22.102-.318.172l-4.018 2.84a5.883 5.883 0 0 0-1.12-1.605l10.59-10.59.657.656a1.496 1.496 0 0 0 2.12 0 1.496 1.496 0 0 0 0-2.12l-.26-.264 22.07-11.28zM80.45 71.67L69.86 82.26l-2.12-2.12 10.59-10.59 2.12 2.12zm2.405-1.83l-.28-.283-2.12-2.12-.285-.29 11.496-22.51c2.524.38 5.72 2.28 8.58 5.15 2.808 2.82 4.73 6.067 5.118 8.557l-22.5 11.493zm49.23 20.1a50.818 50.818 0 0 1-33.22 14.836l-2.836.162v.147c-9.85 1.35-18.58 5.6-25.38 12.4a26.764 26.764 0 0 1-12.72 7.13l-9.435-9.43c1.01-.27 1.946-.77 2.703-1.53l14.165-14.17 6.62-6.62c.978-.975 1.546-2.24 1.69-3.6l5.03-3.552 33.532-13.182c.028-.01.046-.03.075-.044.13-.06.25-.135.35-.227.04-.03.08-.058.11-.09a1.47 1.47 0 0 0 .294-.424s0-.004.003-.01l.002-.006c1.484-3.373.19-7.945-1.65-10.77-.94-1.45-2-2.434-3.08-2.905-.44-3.205-2.59-6.99-5.966-10.376-3.386-3.4-7.184-5.57-10.408-6.01-.47-1.074-1.457-2.13-2.907-3.08-2.83-1.83-7.406-3.13-10.775-1.64h-.01c-.054.023-.09.07-.137.093-.126.07-.24.14-.34.24-.1.104-.16.228-.23.35-.025.05-.07.085-.09.138L64.298 71.3l-3.556 5.034c-1.35.145-2.62.713-3.59 1.688L36.37 98.817a5.95 5.95 0 0 0-1.53 2.703l-9.44-9.436a26.77 26.77 0 0 1 7.13-12.727c6.8-6.796 11.05-15.527 12.396-25.38h.156l.156-2.837A50.833 50.833 0 0 1 60.07 17.92C69.688 8.3 82.472 3 96.076 3s26.392 5.298 36.01 14.918c19.855 19.858 19.855 52.17 0 72.028z" fill="#F6F5EF" fill-rule="evenodd"/></svg>