<svg width="150" height="150" viewBox="0 0 150 150" xmlns="http://www.w3.org/2000/svg"><title>Shape</title><path d="M134.207 15.796C123.677 5.267 109.875 0 96.077 0c-13.802 0-27.6 5.265-38.13 15.796-9.776 9.777-15.007 22.376-15.706 35.177h-.006c-.768 9.61-4.488 18.924-11.823 26.26a29.842 29.842 0 0 0-8.277 15.822l1.057 1.058-5.037 5.038c-1.176-.116-2.41.31-3.18 1.23-.67.798-.93 1.802-.813 2.764l-2.36 2.358c-1.177-.115-2.412.31-3.186 1.234-.67.796-.927 1.798-.81 2.76L5.44 111.86c-1.176-.116-2.407.31-3.18 1.233a3.626 3.626 0 0 0-.05 4.594v5.532c0 .514.13 1.075.322 1.62l-1.473 1.475c-.583.588-1.06 1.737-1.06 2.562v9.715c0 .827.477 1.974 1.06 2.558l7.79 7.79c.584.586 1.734 1.06 2.558 1.06h9.714c.823 0 1.974-.474 2.557-1.06l1.31-1.31c.704.324 1.472.532 2.157.532h5.478c1.227 0 2.748-.63 3.618-1.5l.44-.442c.286.073.578.123.876.123 1.075 0 2.09-.47 2.776-1.29.88-1.05 1.047-2.45.583-3.647l1.675-1.675c.418.162.863.256 1.318.256 1.075 0 2.088-.47 2.778-1.29.88-1.05 1.046-2.45.583-3.643l1.676-1.678c.418.162.863.256 1.318.256 1.075 0 2.088-.47 2.776-1.29.88-1.045 1.046-2.447.583-3.642l2.07-2.07 1.258 1.26a29.78 29.78 0 0 0 15.817-8.28c7.337-7.338 16.65-11.056 26.26-11.826v-.007c12.794-.7 25.395-5.93 35.17-15.71 21.063-21.058 21.063-55.209.005-76.27v.002zM14.555 106.994l1.212-1.216 30.74 25.797-1.215 1.216-30.738-25.796zm-6.357 6.355l1.213-1.216 30.74 25.797-1.212 1.214-30.74-25.795zm13.4 33.433a1.79 1.79 0 0 1-.476.217l-9.658.003a1.827 1.827 0 0 1-.492-.183l-7.752-7.75a1.723 1.723 0 0 1-.22-.477l-.002-9.657c.017-.137.137-.425.185-.494l1.056-1.056 18.375 18.38-1.018 1.017zm5.55-1.62c-.427 0-1.197-.32-1.498-.62l-3.555-3.554-.006.005L9.38 128.28l.005-.005-3.556-3.556c-.303-.302-.62-1.07-.62-1.498v-2.92l28.896 24.25c-.31.297-1.063.61-1.484.61h-5.475zm10.892-2.04a.622.622 0 0 1-.877.075l-31.95-26.813v-.135H5.05l-.413-.345a.634.634 0 0 1-.078-.88c.116-.14.29-.218.477-.218a.62.62 0 0 1 .397.144l32.527 27.295a.63.63 0 0 1 .08.877zm6.355-6.357a.617.617 0 0 1-.48.22.62.62 0 0 1-.397-.144L10.99 109.546a.634.634 0 0 1-.078-.88.622.622 0 0 1 .878-.073l32.526 27.295c.26.216.295.62.08.877zm6.354-6.355a.62.62 0 0 1-.477.22.616.616 0 0 1-.4-.143L17.346 103.19a.63.63 0 0 1-.078-.876.62.62 0 0 1 .876-.074l32.528 27.294a.63.63 0 0 1 .078.877zm.898-3.974l-30.74-25.797 4.4-4.406 11.035 11.035c.008.005.012.017.02.025l6.357 6.355c.008.006.017.012.024.02l10.833 10.836-1.93 1.93zm-13.163-25.498L52.65 86.772a2.982 2.982 0 0 1 2.118-.873c.768 0 1.536.288 2.118.872l6.355 6.354a3.006 3.006 0 0 1 .002 4.236L49.076 111.53a2.98 2.98 0 0 1-2.118.873 2.982 2.982 0 0 1-2.093-.853l-6.402-6.404a3.002 3.002 0 0 1 .023-4.208zM60.73 79.353c.21.105.433.175.66.175.237 0 .47-.058.686-.166a2.96 2.96 0 0 1 1.434.785l2.093 2.093c.01.01.013.02.022.03l2.118 2.118c.01.01.023.017.032.03l2.09 2.09c.413.414.672.922.793 1.46-.203.407-.204.883.002 1.307a2.964 2.964 0 0 1-.796 1.47l-2.97 2.968a5.935 5.935 0 0 0-1.53-2.708l-6.356-6.354a5.91 5.91 0 0 0-2.706-1.53l2.97-2.97a2.946 2.946 0 0 1 1.457-.797zm19.29-39.83c2.22-.652 5.378.263 7.404 1.58 1.112.723 1.626 1.377 1.79 1.743l-11.274 22.07-.264-.263a1.498 1.498 0 0 0-2.12 0 1.498 1.498 0 0 0 0 2.12l.66.66-10.59 10.59a5.954 5.954 0 0 0-1.608-1.118l2.838-4.02c.07-.098.127-.206.172-.317l12.99-33.046zm27.14 21.273c.365.167 1.02.677 1.745 1.79 1.315 2.026 2.227 5.184 1.576 7.407L77.443 82.98c-.112.043-.22.102-.318.172l-4.017 2.84a5.883 5.883 0 0 0-1.12-1.605l10.59-10.59.657.656a1.496 1.496 0 0 0 2.12 0 1.496 1.496 0 0 0 0-2.12l-.26-.264 22.065-11.273zM80.454 71.674l-10.59 10.59-2.118-2.12 10.59-10.588 2.118 2.118zm2.407-1.83l-.282-.283-.005-.005-2.118-2.118s-.003 0-.003-.003l-.283-.285 11.496-22.507c2.523.377 5.72 2.28 8.58 5.15 2.807 2.82 4.73 6.066 5.117 8.556l-22.5 11.493zm49.222 20.102A50.818 50.818 0 0 1 98.87 104.78l-2.836.163v.148c-9.855 1.346-18.585 5.6-25.38 12.4a26.764 26.764 0 0 1-12.724 7.13l-9.435-9.437c1.01-.268 1.946-.772 2.703-1.53l14.166-14.167 6.62-6.62c.978-.976 1.546-2.24 1.69-3.6l5.03-3.553 33.532-13.182c.028-.01.046-.034.075-.047.127-.06.242-.133.347-.225.035-.03.074-.057.104-.09.118-.123.223-.26.295-.423 0-.003 0-.006.003-.01 0-.002 0-.005.003-.008 1.487-3.372.193-7.944-1.646-10.77-.94-1.45-2-2.433-3.08-2.904-.44-3.204-2.593-6.988-5.968-10.375-3.385-3.4-7.183-5.57-10.407-6.01-.47-1.078-1.456-2.137-2.906-3.08-2.83-1.837-7.406-3.13-10.775-1.645l-.007.002c0 .002-.003.002-.006.003-.052.024-.088.068-.135.094-.122.07-.24.14-.34.24-.098.103-.16.227-.225.35-.027.048-.07.084-.092.137L64.298 71.3l-3.556 5.034c-1.357.145-2.62.713-3.596 1.688L36.364 98.817a5.95 5.95 0 0 0-1.53 2.703l-9.433-9.436a26.77 26.77 0 0 1 7.13-12.727c6.798-6.796 11.05-15.527 12.395-25.38h.156l.156-2.837a50.833 50.833 0 0 1 14.832-33.22C69.688 8.3 82.472 3 96.076 3c13.604 0 26.392 5.298 36.01 14.918 19.855 19.858 19.855 52.17 0 72.028z" fill="#F6F5EF" fill-rule="evenodd"/></svg>