<svg width="150" height="150" viewBox="0 0 150 150" xmlns="http://www.w3.org/2000/svg"><title>Shape</title><path d="M134.207 15.796C123.677 5.266 109.875 0 96.077 0c-13.802 0-27.6 5.265-38.13 15.796C48.17 25.573 42.94 38.172 42.24 50.973h-.005c-.768 9.61-4.488 18.924-11.823 26.26a29.842 29.842 0 0 0-8.277 15.822l1.057 1.058-5.037 5.038c-1.176-.11-2.41.31-3.18 1.23a3.602 3.602 0 0 0-.813 2.77l-2.36 2.36c-1.177-.112-2.412.31-3.186 1.237a3.59 3.59 0 0 0-.81 2.76l-2.366 2.36c-1.176-.115-2.407.31-3.18 1.234a3.626 3.626 0 0 0-.05 4.594v5.533c0 .51.13 1.07.322 1.62l-1.472 1.47c-.587.59-1.06 1.74-1.06 2.565v9.717c0 .827.475 1.974 1.06 2.56l7.79 7.79c.582.584 1.732 1.06 2.556 1.06h9.714c.824 0 1.975-.476 2.558-1.06l1.31-1.31c.704.322 1.472.53 2.157.53h5.478c1.227 0 2.748-.63 3.618-1.5l.44-.44c.29.07.58.12.88.12a3.61 3.61 0 0 0 2.78-1.29c.88-1.05 1.05-2.45.586-3.647l1.675-1.674a3.65 3.65 0 0 0 1.32.255 3.62 3.62 0 0 0 2.777-1.29c.88-1.05 1.047-2.45.584-3.643l1.676-1.68a3.65 3.65 0 0 0 1.317.257c1.075 0 2.088-.47 2.776-1.29.88-1.04 1.045-2.443.582-3.64l2.07-2.07 1.26 1.26a29.78 29.78 0 0 0 15.818-8.28c7.34-7.34 16.65-11.054 26.26-11.824v-.006c12.796-.7 25.397-5.93 35.17-15.71 21.065-21.06 21.065-55.21.007-76.27zM14.555 106.994l1.212-1.216 30.74 25.797-1.215 1.216L14.554 107zm-6.357 6.355l1.213-1.22 30.74 25.79-1.21 1.213L8.2 113.35zm13.4 33.43a1.79 1.79 0 0 1-.476.21h-9.658a1.827 1.827 0 0 1-.492-.183l-7.752-7.75a1.723 1.723 0 0 1-.22-.478l-.002-9.66c.017-.136.137-.424.185-.493l1.056-1.053 18.37 18.38-1.02 1.017zm5.55-1.62c-.427 0-1.197-.32-1.498-.62l-3.555-3.56-.006.003-12.71-12.71v-.006l-3.56-3.556c-.305-.305-.62-1.07-.62-1.5v-2.92l28.9 24.26c-.31.295-1.062.61-1.483.61h-5.475zm10.892-2.04a.622.622 0 0 1-.877.07l-31.95-26.81v-.138H5.05l-.413-.346a.634.634 0 0 1-.078-.88.614.614 0 0 1 .47-.218.62.62 0 0 1 .393.143l32.527 27.296a.63.63 0 0 1 .08.877zm6.355-6.36a.617.617 0 0 1-.48.22.62.62 0 0 1-.397-.15L10.99 109.54a.634.634 0 0 1-.078-.88.622.622 0 0 1 .878-.073l32.526 27.295a.63.63 0 0 1 .08.875zm6.354-6.36a.62.62 0 0 1-.48.22.616.616 0 0 1-.4-.144L17.34 103.19a.63.63 0 0 1-.078-.877.62.62 0 0 1 .875-.074l32.53 27.29a.63.63 0 0 1 .08.877zm.89-3.975L20.9 100.632l4.4-4.407 11.036 11.035c.01.006.012.018.02.026l6.357 6.356c.007.006.016.012.023.02l10.84 10.838-1.93 1.93zM38.48 100.93l14.17-14.16a2.982 2.982 0 0 1 2.117-.872 2.98 2.98 0 0 1 2.118.87l6.355 6.35a3.006 3.006 0 0 1 .01 4.237l-14.168 14.17a2.98 2.98 0 0 1-2.12.872 2.982 2.982 0 0 1-2.092-.856l-6.402-6.4a3.002 3.002 0 0 1 .023-4.21zm22.25-21.58a1.5 1.5 0 0 0 .66.175c.234 0 .47-.06.683-.168a2.96 2.96 0 0 1 1.434.784l2.092 2.095c.01.01.01.02.02.03l2.12 2.12c.01.01.02.016.03.03l2.09 2.09c.413.413.672.92.793 1.46a1.47 1.47 0 0 0 .002 1.306 2.964 2.964 0 0 1-.797 1.47l-2.97 2.97A5.935 5.935 0 0 0 65.36 91l-6.356-6.354a5.91 5.91 0 0 0-2.706-1.53l2.97-2.97a2.946 2.946 0 0 1 1.458-.793zm19.29-39.83c2.22-.652 5.375.263 7.4 1.58 1.113.723 1.627 1.377 1.79 1.743L77.94 64.917l-.264-.264a1.498 1.498 0 0 0-2.12 0 1.498 1.498 0 0 0 0 2.12l.66.66-10.59 10.59a5.954 5.954 0 0 0-1.608-1.118l2.838-4.02c.07-.098.127-.206.172-.317l12.99-33.046zm27.14 21.273c.362.167 1.02.677 1.742 1.79 1.315 2.026 2.227 5.184 1.576 7.407L77.45 82.98c-.112.043-.22.102-.318.172l-4.018 2.84a5.883 5.883 0 0 0-1.12-1.605l10.59-10.59.657.656a1.496 1.496 0 0 0 2.12 0 1.496 1.496 0 0 0 0-2.12l-.26-.264 22.068-11.28zm-26.71 10.88l-10.59 10.59-2.118-2.12 10.59-10.59 2.118 2.12zm2.407-1.83l-.28-.284-2.12-2.12-.285-.286 11.495-22.51c2.524.378 5.72 2.28 8.58 5.15 2.808 2.82 4.73 6.067 5.118 8.557l-22.5 11.494zm49.23 20.1a50.818 50.818 0 0 1-33.22 14.835l-2.836.162v.148c-9.854 1.35-18.584 5.6-25.38 12.4a26.764 26.764 0 0 1-12.723 7.13l-9.433-9.43c1.01-.27 1.946-.77 2.703-1.53l14.165-14.17 6.62-6.62c.978-.975 1.546-2.24 1.69-3.6l5.03-3.552 33.532-13.182c.028-.01.046-.034.075-.047.13-.06.25-.135.35-.227.04-.03.077-.056.107-.09a1.47 1.47 0 0 0 .295-.422s0-.004.003-.01c0 0 0-.003.004-.006 1.485-3.373.19-7.945-1.648-10.77-.94-1.45-2-2.434-3.08-2.905-.44-3.205-2.592-6.99-5.967-10.376-3.386-3.4-7.184-5.57-10.408-6.01-.47-1.076-1.456-2.135-2.906-3.08-2.83-1.835-7.406-3.13-10.775-1.643h-.01c-.053.024-.09.07-.136.094-.124.07-.24.14-.34.24-.1.104-.16.228-.227.35-.026.05-.07.085-.09.138L64.296 71.3l-3.555 5.034c-1.35.145-2.62.713-3.59 1.688L36.37 98.817a5.95 5.95 0 0 0-1.53 2.703l-9.44-9.436a26.77 26.77 0 0 1 7.13-12.727c6.8-6.796 11.05-15.527 12.396-25.38h.156l.156-2.837A50.833 50.833 0 0 1 60.07 17.92C69.688 8.3 82.472 3 96.076 3s26.392 5.298 36.01 14.918c19.855 19.858 19.855 52.17 0 72.028z" fill="#F6F5EF" fill-rule="evenodd"/></svg>