<svg width="151" height="232" viewBox="0 0 151 232" xmlns="http://www.w3.org/2000/svg"><title>Shape</title><path d="M150.113 74.67l-9.425-9.427c-.3-.298-1.092-.68-1.633-.68l-36.536.005a2.418 2.418 0 0 1-2.42-2.41v-9.616h.04c8.2 0 8.24-12.464 0-12.47l-9.474.004V37.09h21.14c.396 0 .787-.105 1.13-.298l13.225-7.466c.866-.484 1.185-1.65 1.185-2.01l.004-15.72c0-1.012-.19-1.345-.98-1.883L114.08.94a2.32 2.32 0 0 0-1.34-.433L38.86.5a2.28 2.28 0 0 0-1.338.435L25.207 9.71c-.922.63-.95 1.817-.97 1.875l.003 15.72c0 .83.445 1.595 1.17 2.007l13.23 7.466a2.32 2.32 0 0 0 1.13.296h21.142l-.002 2.985-9.48-.01c-7.828 0-8.086 11.28-.946 12.38l-.003 9.71c0 1.27-1.13 2.41-2.4 2.41H12.54c-.366 0-1.214.26-1.633.67L1.48 74.65c-.43.427-.68 1.09-.68 1.637L.796 219.32c0 .46.247 1.206.675 1.63l9.43 9.434c.34.34.88.647 1.5.647.05.01 126.71.02 126.73.02.507 0 1.24-.34 1.57-.66.01 0 .01 0 .01-.01l9.4-9.41c.46-.45.65-.84.65-1.42l.05-143.24c0-.61-.24-1.2-.68-1.63zm-47.594-5.503l32.84-.004-3.14 6.33H78.67a270.215 270.215 0 0 1-.533-15.4c3.616-.863 6.623-3.66 7.536-7.563l9.823-.002-.004 9.616c0 3.872 3.15 7.02 7.022 7.023zm7.9 29.995v59.308H41.16V99.16l69.26.002zm-34.63-54.49c7.84.008 7.75 11.088 0 11.105h-.026c-7.077-.02-7.343-11.104.012-11.104zm-10.27-4.61v-2.986l20.53.003v2.98H65.52zm34.63 4.61c2.38-.008 2.37 3.247 0 3.247H85.68a10.086 10.086 0 0 0-1.39-3.25h15.87zm22.59-22.162l-11.9-.003-.01-8.616 11.9.01v8.62zM111.99 5.118l5.845 4.164H109.8l-2.673-4.164H112zm-2.11 22.005l10.803-.002-9.467 5.35h-4.36l3.026-5.34zM49.94 5.113h51.703l2.67 4.16H47.27l2.676-4.16zm-10.35 0l4.867.003-2.67 4.16h-8.04l5.843-4.163zM28.84 13.89l11.9.003v8.614H28.85l-.005-8.616zm11.54 18.57l-9.472-5.34h10.8l3.026 5.34H40.38zm4.983-18.567l60.87.002v8.615H45.36l.003-8.617zm4.67 18.57L47.01 27.12h57.58l-3.03 5.344H50.03zm1.4 12.21H67.29a9.937 9.937 0 0 0-1.367 3.246H51.43c-2.3-.01-2.297-3.26.004-3.25zm-3.35 24.49c4.734.014 7.02-2.567 7.02-7.022v-9.61H65.92c.927 4.01 3.586 6.67 7.608 7.59.042 5.14.22 10.27.536 15.38H19.367l-3.123-6.32h31.84zM5.407 80.588l5.212 3.456V211.56l-5.21 3.463L5.4 80.588zm6.48 144.26l-5.162-5.163 5.904-3.926 2.5 2.51-3.25 6.57zm.742-145.003l-5.91-3.922 5.15-5.16 3.25 6.57-2.51 2.512zm3.61 146.603l3.12-6.332h112.86l3.12 6.332H16.24zm120.12-14.6l-3.67 3.673H18.89l-3.66-3.67V83.77l3.66-3.66h55.49c.388 4.853.9 9.674 1.534 14.443h-39.36l-.003 68.54h59.24c8.63 17.81 19.72 33.586 33.01 46.876l3.26-3.27c-12.424-12.42-22.85-27.088-31.12-43.61h14.11V94.56H80.56a264.835 264.835 0 0 1-1.54-14.45h53.678l3.668 3.66v128.07zM139.7 70.76l5.166 5.167-5.904 3.925-2.513-2.513 3.25-6.58zm.01 154.095l-3.256-6.577 2.513-2.51 5.908 3.928-5.165 5.16zm6.474-9.825l-5.207-3.463V84.045l5.216-3.457-.01 134.44z" fill-rule="evenodd"/></svg>