<svg width="151" height="232" viewBox="0 0 151 232" xmlns="http://www.w3.org/2000/svg"><title>Shape</title><path d="M150.113 74.67l-9.425-9.427c-.3-.298-1.092-.68-1.633-.68l-36.536.005a2.418 2.418 0 0 1-2.412-2.41l.005-9.616h.047c8.202 0 8.24-12.464 0-12.47l-9.474.004V37.09h21.14c.397 0 .788-.105 1.13-.298l13.226-7.466c.864-.484 1.183-1.65 1.183-2.01l.004-15.72c0-1.012-.192-1.345-.98-1.883L114.075.94a2.32 2.32 0 0 0-1.34-.433L38.86.5c-.48.002-.947.15-1.338.435L25.207 9.71c-.922.63-.95 1.817-.97 1.875l.003 15.72c0 .83.445 1.595 1.17 2.007l13.23 7.466a2.32 2.32 0 0 0 1.13.296h21.142l-.002 2.985-9.48-.003c-7.828 0-8.086 11.283-.946 12.378l-.003 9.71c0 1.275-1.13 2.41-2.407 2.41h-35.54c-.365 0-1.213.26-1.632.677l-9.426 9.43C1.052 75.08.8 75.743.8 76.29L.793 219.32c0 .46.247 1.206.675 1.63l9.43 9.434c.336.34.88.647 1.5.647.047.005 126.707.02 126.728.017.503 0 1.236-.34 1.565-.66.004-.002.004-.006.01-.01l9.4-9.41c.454-.45.645-.838.645-1.425l.047-143.24c0-.615-.24-1.2-.682-1.635zm-47.594-5.503l32.842-.004-3.137 6.33h-53.55c-.32-5.115-.506-10.252-.534-15.4 3.617-.863 6.624-3.66 7.537-7.563l9.823-.002-.003 9.616c0 3.872 3.15 7.02 7.022 7.023zm7.905 29.995l.005 59.308H41.164V99.16l69.26.002zm-34.63-54.49h.005c7.848.008 7.758 11.088.007 11.105h-.023c-7.077-.02-7.343-11.104.012-11.104zm-10.267-4.61l.002-2.986 20.536.003.002 2.982h-20.54zm34.632 4.61c2.38-.008 2.377 3.247.002 3.247H85.68a10.086 10.086 0 0 0-1.39-3.245l15.87-.002zm22.59-22.162l-11.9-.003-.003-8.616 11.902.003v8.617zM111.996 5.118l5.845 4.164h-8.036l-2.674-4.164h4.865zm-2.11 22.005l10.803-.002-9.466 5.343h-4.362l3.025-5.34zm-59.94-22.01h51.703l2.67 4.16H47.27l2.676-4.16zm-10.35 0l4.867.003-2.67 4.16h-8.04l5.843-4.163zM28.845 13.89l11.902.003v8.614H28.85l-.005-8.616zM40.38 32.46l-9.472-5.34h10.8l3.026 5.34H40.38zm4.983-18.567l60.87.002v8.615H45.36l.003-8.617zm4.67 18.57l-3.024-5.342h57.58l-3.028 5.343h-51.53zm1.4 12.21H67.29a9.937 9.937 0 0 0-1.367 3.246H51.43c-2.3-.003-2.297-3.252.004-3.247zm-3.35 24.49c4.734.014 7.02-2.567 7.02-7.022v-9.61l10.818-.004c.924 4.012 3.583 6.672 7.605 7.587.042 5.14.22 10.27.536 15.377H19.367l-3.123-6.327h31.84zM5.407 80.588l5.212 3.456V211.56l-5.21 3.463-.003-134.435zm6.48 144.26l-5.162-5.163 5.904-3.926 2.507 2.51-3.25 6.578zm.742-145.003l-5.902-3.922 5.156-5.16 3.253 6.57-2.508 2.512zm3.613 146.603l3.126-6.332h112.853l3.125 6.332H16.243zm120.123-14.6l-3.664 3.673-113.808-.006-3.66-3.668V83.766l3.662-3.658h55.49c.387 4.853.9 9.674 1.533 14.443H36.554l-.002 68.536h59.235c8.63 17.81 19.72 33.586 33.002 46.876l3.26-3.262c-12.422-12.417-22.848-27.084-31.113-43.61h14.108l-.004-68.532H80.56a264.835 264.835 0 0 1-1.54-14.445h53.678l3.668 3.66V211.85zM139.7 70.76l5.166 5.167-5.904 3.925-2.513-2.513 3.25-6.58zm.01 154.095l-3.256-6.577 2.513-2.51 5.908 3.928-5.165 5.16zm6.474-9.825l-5.207-3.463V84.045l5.216-3.457-.01 134.44z" fill="#000" fill-rule="evenodd"/></svg>