<svg width="180" height="180" viewBox="0 0 180 180" xmlns="http://www.w3.org/2000/svg"><title>Shape</title><path d="M178.027 1.976A6.72 6.72 0 0 0 173.26 0a6.73 6.73 0 0 0-4.77 1.976 6.686 6.686 0 0 0-1.89 3.865c-1.857-1.06-3.82-1.78-5.74-1.96 0 0-24.396 6.6-40.29 22.5-15.898 15.89-44.51 44.51-44.51 44.51h6.36a4.494 4.494 0 0 0 4.497-4.492l24.115-24.115c1.59-1.59 3.976-2.383 6.36-2.383 1.076 0 2.143.184 3.146.51L84.246 76.68l-.263.263-2.914 2.914-4.78 4.773-28.62 28.62C-4.07 165 1.59 172.047 1.59 172.047l.906.905c-1.716 3.39-2.5 7.05-2.5 7.05s3.653-.79 7.04-2.503l.91.91s.224.18.9.18c3.07 0 15.44-3.81 57.9-46.27l31.8-31.8 4.766-4.77h-.003l41.11-41.11 3.05-3.05a348.64 348.64 0 0 0 5.07-5.2l.77-.797a345.35 345.35 0 0 0 1.633-1.733c.362-.383.728-.77 1.082-1.15l1.45-1.564c.382-.417.762-.83 1.134-1.24.44-.48.87-.95 1.3-1.424l1.18-1.314a303.69 303.69 0 0 0 2.37-2.685l.89-1.017c.556-.64 1.09-1.26 1.61-1.87l.37-.43c.677-.79 1.318-1.55 1.93-2.277l.007-.01a254.91 254.91 0 0 0 1.716-2.064 356.546 356.546 0 0 0 1.698-2.07c.45-.55.863-1.066 1.246-1.543l.03-.04a192.665 192.665 0 0 0 2.975-3.797l.18-.238c-.175-1.917-.89-3.88-1.96-5.738a6.697 6.697 0 0 0 3.87-1.89 6.745 6.745 0 0 0 0-9.54zm-23.217 36.77c-.117.13-.24.26-.358.39-.533.576-1.076 1.16-1.624 1.75l-.92.977c-.365.387-.736.778-1.108 1.168-.398.42-.798.85-1.206 1.27-.045.05-.096.1-.14.15a3.016 3.016 0 0 1-.674-.5 3.125 3.125 0 0 1-.912-2.22c0-.85.324-1.637.912-2.225l19.077-19.075a3.113 3.113 0 0 1 2.223-.916c.37 0 .727.06 1.062.18-2.888 3.65-8.622 10.68-16.332 19.065zm4.777-26.596l-19.073 19.073a3.13 3.13 0 0 1-2.224.914 3.12 3.12 0 0 1-2.225-.914 2.973 2.973 0 0 1-.475-.62c8.062-7.712 14.72-13.524 19.442-17.467a154.283 154.283 0 0 1 1.25-1.04l.34-.28c.528-.434 1.02-.837 1.486-1.213l.482-.39c.187-.152.355-.287.53-.427.22-.173.433-.344.633-.503.126-.1.252-.198.37-.293.07-.053.127-.1.193-.152a3.152 3.152 0 0 1-.73 3.312zM117.39 36.286c-.594 0-1.18.038-1.757.11l7.477-7.48c8.946-8.945 20.895-14.865 29.137-18.202-6.264 5.265-15.415 13.385-26.494 24.462l-.386.387c-.005.003-.01.01-.012.012l-2.047 2.045c-1.76-.866-3.794-1.334-5.918-1.334zM64.208 129.78c-35.793 35.792-49.484 43.252-53.737 44.803l-5.04-5.05c.41-1.124 1.23-2.92 2.87-5.597 4.51-7.344 15.44-21.66 41.93-48.145l28.61-28.61 13.99 13.99-28.62 28.62zm17.81-45.786L83.61 82.4 97.6 96.39l-1.593 1.59-13.99-13.986zM141.884 52.1l-41.108 41.112-13.988-13.988 36.96-36.958 4.244-4.244a533.553 533.553 0 0 1 4.988-4.91c.172.222.336.45.54.653a6.726 6.726 0 0 0 4.768 1.967 6.722 6.722 0 0 0 4.766-1.967l19.077-19.073c1.68-1.673 2.27-4.016 1.81-6.18 3.1 1.516 6.04 4.455 7.55 7.55a6.813 6.813 0 0 0-1.41-.16 6.71 6.71 0 0 0-4.76 1.967l-19.08 19.07c-2.62 2.62-2.62 6.91 0 9.53.22.212.45.385.69.56a343.54 343.54 0 0 1-1.984 2.007l-3.05 3.05zm33.598-43.13a3.12 3.12 0 0 1-2.224.923c-.838 0-1.63-.327-2.224-.922a3.124 3.124 0 0 1-.924-2.22c0-.84.328-1.63.924-2.22a3.135 3.135 0 0 1 2.226-.92 3.146 3.146 0 0 1 2.22 5.37h.002z" fill="#F6F5EF" fill-rule="evenodd"/></svg>