<svg width="180" height="180" viewBox="0 0 180 180" xmlns="http://www.w3.org/2000/svg"><title>Shape</title><path d="M178.027 1.976A6.72 6.72 0 0 0 173.26 0c-1.728 0-3.452.66-4.77 1.976-1.087 1.088-1.7 2.454-1.89 3.865-1.857-1.068-3.82-1.783-5.74-1.96 0 0-24.396 6.596-40.29 22.492C104.672 42.266 76.06 70.88 76.06 70.88l6.36-.003a4.494 4.494 0 0 0 4.497-4.493l24.115-24.116c1.59-1.59 3.976-2.383 6.36-2.383 1.076 0 2.143.185 3.146.51L84.246 76.68l-.263.263-2.914 2.914-4.773 4.773L47.68 113.25C-4.07 165 1.596 172.047 1.596 172.047l.903.905c-1.713 3.39-2.5 7.05-2.5 7.05s3.656-.79 7.04-2.503l.91.91s.227.184.9.184c3.07 0 15.44-3.81 57.902-46.27l31.8-31.8 4.767-4.767h-.003l41.11-41.11 3.052-3.05c1.757-1.762 3.44-3.49 5.07-5.193l.768-.797c.556-.585 1.093-1.157 1.633-1.733.362-.386.728-.773 1.082-1.152l1.45-1.566c.383-.416.763-.83 1.135-1.24.438-.48.868-.95 1.293-1.423l1.18-1.314a303.69 303.69 0 0 0 2.372-2.682l.888-1.016c.558-.64 1.09-1.26 1.613-1.87.12-.14.252-.29.37-.43.676-.79 1.317-1.548 1.93-2.277l.006-.01c.607-.72 1.172-1.403 1.716-2.062a356.546 356.546 0 0 0 1.696-2.074c.45-.552.864-1.067 1.247-1.544l.03-.038a192.665 192.665 0 0 0 2.975-3.798l.178-.237c-.174-1.917-.887-3.88-1.958-5.738 1.413-.19 2.78-.803 3.868-1.89a6.745 6.745 0 0 0 .004-9.54zm-23.217 36.77c-.117.13-.24.26-.358.39-.533.576-1.076 1.16-1.624 1.75l-.92.977c-.365.387-.736.778-1.108 1.168-.398.42-.798.842-1.206 1.265-.045.047-.096.097-.14.146a3.016 3.016 0 0 1-.674-.502 3.125 3.125 0 0 1-.912-2.224c0-.848.324-1.637.912-2.225l19.077-19.076c.588-.59 1.378-.913 2.223-.913.37 0 .727.063 1.062.183-2.888 3.65-8.622 10.68-16.332 19.064zm4.777-26.596l-19.073 19.073a3.13 3.13 0 0 1-2.224.914 3.12 3.12 0 0 1-2.225-.914 2.973 2.973 0 0 1-.475-.62c8.062-7.712 14.72-13.524 19.442-17.467a154.283 154.283 0 0 1 1.25-1.04l.34-.28c.528-.434 1.02-.837 1.486-1.213l.482-.39c.187-.152.355-.287.53-.427.22-.173.433-.344.633-.503.126-.1.252-.198.37-.293.07-.053.127-.1.193-.152a3.152 3.152 0 0 1-.73 3.312zM117.39 36.286c-.594 0-1.18.038-1.757.11l7.477-7.48c8.946-8.945 20.895-14.865 29.137-18.202-6.264 5.265-15.415 13.385-26.494 24.462l-.386.387c-.005.003-.01.01-.012.012l-2.047 2.045c-1.76-.866-3.794-1.334-5.918-1.334zM64.208 129.78c-35.793 35.792-49.484 43.252-53.737 44.803l-5.043-5.05c.41-1.124 1.228-2.92 2.87-5.597 4.508-7.344 15.442-21.66 41.925-48.145L78.84 87.176l13.988 13.988-28.62 28.618zm17.81-45.786L83.61 82.4 97.6 96.39l-1.593 1.59-13.99-13.986zM141.884 52.1l-41.108 41.112-13.988-13.988 36.96-36.958 4.244-4.244a533.553 533.553 0 0 1 4.988-4.91c.172.222.336.45.54.653a6.726 6.726 0 0 0 4.768 1.967 6.722 6.722 0 0 0 4.766-1.967l19.077-19.073c1.673-1.673 2.27-4.016 1.81-6.18 3.1 1.516 6.037 4.455 7.55 7.55a6.813 6.813 0 0 0-1.412-.16 6.71 6.71 0 0 0-4.767 1.967l-19.075 19.073c-2.62 2.623-2.62 6.916 0 9.537.214.214.452.387.686.563a343.54 343.54 0 0 1-1.985 2.007l-3.05 3.05zM175.482 8.97a3.12 3.12 0 0 1-2.224.923c-.838 0-1.63-.327-2.224-.922a3.124 3.124 0 0 1-.924-2.225c0-.84.328-1.63.924-2.223a3.135 3.135 0 0 1 2.226-.924 3.146 3.146 0 0 1 2.22 5.37l.002.002z" fill="#F6F5EF" fill-rule="evenodd"/></svg>