<svg width="150" height="144" viewBox="0 0 150 144" xmlns="http://www.w3.org/2000/svg"><title>Group</title><g fill="#F6F5EF" fill-rule="evenodd"><path d="M144 125.5v-15H6V136h138v-10.5zm-135-12h132v9H9v-9zm7.5 12h117v3h-117v-3zM141 133H9v-7.5h4.5v6h123v-6h4.5v7.5z"/><path d="M149.976 89.628l-3-24-.024-.19H147v-51c0-4.95-4.05-9-9-9H96.338c.016-.125.037-.247.037-.375v-1.5c0-1.65-1.35-3-3-3h-36.75c-1.65 0-3 1.35-3 3v1.5c0 .128.023.25.038.375H12c-4.95 0-9 4.05-9 9v51h.046l-.023.19-3 24-.023.184v44.626c0 4.95 4.05 9 9 9h132c4.95 0 9-4.05 9-9V89.81l-.024-.184zM56.626 3.562h36.75v1.5h-36.75v-1.5zM69 58.653v3.785h-1.5v-4.212c.492.163.995.296 1.5.426v.002zM73.5 66v25.5H72V66h1.5zm0 28.5v9H72v-9h1.5zm3 0H78v9h-1.5v-9zm0-3V66H78v25.5h-1.5zM81 62.437v-3.785a24.59 24.59 0 0 0 1.5-.425v4.212H81v-.002zm-3 0h-1.5v-3h-3v3H72V59.23c.986.123 1.98.208 3 .208s2.014-.085 3-.208v3.208zM69 66v25.5h-1.5V66H69zm0 28.5v9h-1.5v-9H69zm12 9v-9h1.5v9H81zm0-12V66h1.5v25.5H81zm4.5-29.063v-5.443c.51-.25 1.013-.51 1.5-.794v6.237h-1.5zm-10.5-6c-11.58 0-21-9.42-21-21s9.42-21 21-21 21 9.42 21 21-9.42 21-21 21zm-10.5.557v5.444H63V56.2c.49.284.99.545 1.5.794zm0 9.006v25.5H63V66h1.5zm0 28.5v9H63v-9h1.5zm21 9v-9H87v9h-1.5zm0-12V66H87v25.5h-1.5zM6 14.437c0-3.308 2.69-6 6-6h126c3.31 0 6 2.692 6 6v48H90v-8.28c5.483-4.4 9-11.144 9-18.72 0-13.253-10.745-24-24-24-13.254 0-24 10.746-24 24 0 7.577 3.52 14.32 9 18.72v8.28H6v-48zM3 90l3-24h54v25.5H3V90zm57 4.5v9H3v-9h57zm87 39.938c0 3.31-2.69 6-6 6H9c-3.31 0-6-2.69-6-6v-27h144v27zm0-30.938H90v-9h57v9zm-57-12V66h54l3 24v1.5H90z"/><path d="M75 20.438c-8.283 0-15 6.716-15 15 0 8.284 6.717 15 15 15 8.283 0 15-6.716 15-15 0-8.284-6.717-15-15-15zm0 27c-6.617 0-12-5.384-12-12 0-6.617 5.383-12 12-12s12 5.383 12 12c0 6.616-5.383 12-12 12zM127.5 34.688a9.75 9.75 0 0 0 9.75-9.75 9.75 9.75 0 0 0-9.75-9.75 9.75 9.75 0 0 0-9.75 9.75 9.75 9.75 0 0 0 9.75 9.75zm0-16.5c3.72 0 6.75 3.028 6.75 6.75 0 3.72-3.03 6.75-6.75 6.75a6.758 6.758 0 0 1-6.75-6.75c0-3.722 3.028-6.75 6.75-6.75zM28.5 41.438a9 9 0 0 0 0 18 9 9 0 0 0 0-18zm0 15c-3.31 0-6-2.692-6-6 0-3.31 2.69-6 6-6s6 2.69 6 6c0 3.308-2.69 6-6 6zM123 59.44a9 9 0 0 0 9-9.002c0-4.457-3.244-8.15-7.5-8.866v-1.26a1.5 1.5 0 0 0-3 0v1.26c-4.255.717-7.5 4.41-7.5 8.865a9 9 0 0 0 9 9.002zm0-15.002c3.31 0 6 2.69 6 6 0 3.308-2.69 6-6 6s-6-2.692-6-6c0-3.31 2.69-6 6-6zM43.37 23.438H13.63a3.138 3.138 0 0 0-3.13 3.13v8.74a3.14 3.14 0 0 0 3.13 3.13h29.74a3.14 3.14 0 0 0 3.13-3.13l-.002-8.74a3.136 3.136 0 0 0-3.127-3.13zm.13 11.87c0 .063-.065.13-.13.13H13.63c-.066 0-.13-.067-.13-.13v-8.74c0-.066.065-.13.13-.13h29.74c.064 0 .13.064.13.13l-.002 8.74h.002z"/><path d="M117.638 38.438h19.725c2 0 3.637-1.637 3.637-3.638V15.075c0-2-1.637-3.637-3.637-3.637h-19.725c-2.002 0-3.638 1.636-3.638 3.637V34.8c0 2 1.636 3.638 3.638 3.638zM117 15.075c0-.345.29-.637.638-.637h19.725c.345 0 .637.29.637.637V34.8c0 .345-.29.638-.637.638h-19.725A.646.646 0 0 1 117 34.8V15.075zM39 27.188a3.75 3.75 0 1 0 0 7.498 3.75 3.75 0 0 0 0-7.498zm0 4.5a.75.75 0 0 1 0-1.5.75.75 0 0 1 0 1.5zM30.813 27.188a3.75 3.75 0 1 0 0 7.498 3.75 3.75 0 0 0 0-7.498zm0 4.5a.75.75 0 0 1 0-1.5.75.75 0 0 1 0 1.5zM22.625 27.188a3.75 3.75 0 1 0-.002 7.498 3.75 3.75 0 0 0 .002-7.498zm0 4.5a.75.75 0 0 1 0-1.5.75.75 0 0 1 0 1.5zM16.5 27.188a1.5 1.5 0 0 0-1.5 1.5v4.5a1.5 1.5 0 0 0 3 0v-4.5a1.5 1.5 0 0 0-1.5-1.5z"/></g></svg>