<svg width="200" height="203" viewBox="0 0 200 203" xmlns="http://www.w3.org/2000/svg"><title>Shape</title><path d="M100.007 68.816c-18.59 0-33.714 15.124-33.714 33.714 0 18.59 15.124 33.718 33.714 33.718 18.59 0 33.714-15.128 33.714-33.718 0-18.588-15.12-33.714-33.71-33.714zm0 63.353c-16.34 0-29.635-13.3-29.635-29.64s13.296-29.64 29.635-29.64c16.34 0 29.636 13.29 29.636 29.63s-13.296 29.64-29.636 29.64zm21.733-66.29a5.97 5.97 0 0 0 4.61 2.16 6.02 6.02 0 0 0 3.833-1.39 5.97 5.97 0 0 0 2.135-4.07 5.956 5.956 0 0 0-1.365-4.39l-6.596-7.918c-2.035-2.445-5.99-2.817-8.45-.773a5.97 5.97 0 0 0-2.135 4.07 5.96 5.96 0 0 0 1.366 4.386l6.597 7.913zm-3.22-13.23a1.913 1.913 0 0 1 2.7.24l6.595 7.92a1.91 1.91 0 0 1-.247 2.7c-.443.37-.91.444-1.226.444a1.9 1.9 0 0 1-1.475-.695l-6.6-7.915a1.9 1.9 0 0 1-.436-1.4c.05-.51.29-.97.68-1.3zm-67.53 62.28a6.007 6.007 0 0 0 .77-8.45l-6.597-7.92c-2.04-2.45-5.998-2.81-8.45-.77a5.962 5.962 0 0 0-2.132 4.06 5.96 5.96 0 0 0 1.37 4.38l6.6 7.92a5.986 5.986 0 0 0 4.61 2.16 6.012 6.012 0 0 0 3.84-1.39zm-11.91-11.29a1.91 1.91 0 0 1-.436-1.4c.047-.51.29-.97.683-1.3a1.915 1.915 0 0 1 2.702.24l6.59 7.92a1.922 1.922 0 0 1-1.47 3.15 1.915 1.915 0 0 1-1.48-.69l-6.6-7.92zm14.023-38.93a5.98 5.98 0 0 0 4.61 2.15 6.03 6.03 0 0 0 3.84-1.39c2.538-2.12 2.884-5.91.767-8.448l-6.596-7.918c-2.04-2.45-5.994-2.818-8.45-.77a6.006 6.006 0 0 0-.77 8.45l6.6 7.915zm-3.218-13.23a1.916 1.916 0 0 1 2.705.24l6.597 7.912a1.92 1.92 0 1 1-2.947 2.46l-6.597-7.92a1.92 1.92 0 0 1 .244-2.7zm49.11-11.64a5.968 5.968 0 0 0 6.52-5.43l.932-10.27a6.01 6.01 0 0 0-5.43-6.52 5.96 5.96 0 0 0-6.52 5.43l-.933 10.265a5.966 5.966 0 0 0 1.733 4.782 6.012 6.012 0 0 0 3.697 1.73zm-.433-16.41c.09-.98.917-1.74 2.065-1.74a1.92 1.92 0 0 1 1.756 2.08l-.934 10.26a1.904 1.904 0 0 1-1.91 1.746l-.18-.01a1.89 1.89 0 0 1-1.19-.556 1.913 1.913 0 0 1-.558-1.53l.932-10.262zM60.68 158.34c-3.36-.314-6.22 2.14-6.518 5.43l-.932 10.26a5.977 5.977 0 0 0 1.734 4.79 5.972 5.972 0 0 0 3.695 1.728 5.966 5.966 0 0 0 6.52-5.428l.93-10.265a6.003 6.003 0 0 0-5.43-6.514zm.434 16.408a1.904 1.904 0 0 1-1.904 1.745l-.183-.01a1.906 1.906 0 0 1-1.73-2.083l.93-10.262c.09-.988.9-1.738 2.063-1.738a.04.04 0 0 1 .02.004 1.92 1.92 0 0 1 1.74 2.083l-.936 10.26zm100.076-79.53a5.97 5.97 0 0 0 5.97-5.456 6.01 6.01 0 0 0-5.434-6.52l-10.263-.933a5.946 5.946 0 0 0-4.788 1.73 6 6 0 0 0-1.727 3.69 5.954 5.954 0 0 0 1.364 4.38 5.977 5.977 0 0 0 4.066 2.13l10.26.933c.185.02.37.027.55.027zm-11.745-5.705a1.904 1.904 0 0 1-.436-1.4c.05-.575.32-.96.54-1.183.36-.356.83-.556 1.49-.556l.04.002 10.26.933a1.924 1.924 0 0 1 1.74 2.08 1.906 1.906 0 0 1-1.91 1.74l-10.444-.95a1.91 1.91 0 0 1-1.3-.68zm-52.735 57.92l-10.258-.93a5.935 5.935 0 0 0-4.793 1.73 5.995 5.995 0 0 0-1.73 3.694 5.948 5.948 0 0 0 1.36 4.386 5.973 5.973 0 0 0 4.06 2.136l10.26.93c.182.01.364.02.546.02a5.97 5.97 0 0 0 5.97-5.46 5.952 5.952 0 0 0-1.365-4.39 5.978 5.978 0 0 0-4.07-2.138zm-.54 7.892l-10.44-.94a1.9 1.9 0 0 1-1.3-.684 1.895 1.895 0 0 1-.437-1.4c.052-.57.33-.96.55-1.18.355-.35.822-.55 1.49-.55h.045l10.263.93a1.9 1.9 0 0 1 1.31.69c.33.39.49.89.44 1.4a1.908 1.908 0 0 1-1.9 1.75zm46.68-29.4l-10.284.632a6.006 6.006 0 0 0-5.62 6.356 6.005 6.005 0 0 0 6.357 5.618l10.285-.63a6.008 6.008 0 0 0 5.617-6.36c-.198-3.28-3.067-5.82-6.354-5.61zm.488 7.903l-10.28.632-.124.004a1.922 1.922 0 0 1-1.916-1.798c-.034-.578.18-1 .37-1.257a1.902 1.902 0 0 1 1.428-.79l10.41-.64a1.92 1.92 0 0 1 .112 3.83zm24.71-16.99l-7.92 6.602a5.978 5.978 0 0 0-2.157 4.608 6.02 6.02 0 0 0 1.39 3.838 5.99 5.99 0 0 0 4.62 2.16 6.01 6.01 0 0 0 3.84-1.39l7.92-6.598a6.012 6.012 0 0 0 .77-8.453c-2.03-2.44-5.993-2.808-8.44-.766zm5.068 6.084l-7.92 6.6c-.44.368-.908.447-1.22.447a1.91 1.91 0 0 1-1.478-.7 1.893 1.893 0 0 1-.447-1.23c0-.57.26-1.11.7-1.48l7.92-6.6a1.89 1.89 0 0 1 1.23-.45 1.918 1.918 0 0 1 1.23 3.39zM77.99 59.472a6.01 6.01 0 0 0 3.835-1.39l7.916-6.596a5.957 5.957 0 0 0 2.14-4.067 5.958 5.958 0 0 0-1.36-4.39c-2.03-2.45-5.99-2.81-8.44-.77l-7.92 6.6A5.982 5.982 0 0 0 72 53.47a6.03 6.03 0 0 0 1.39 3.84A5.982 5.982 0 0 0 78 59.47zM76.755 52l7.92-6.597c.44-.37.91-.446 1.224-.446.57 0 1.11.25 1.47.69a1.912 1.912 0 0 1-.25 2.703l-7.92 6.6a1.89 1.89 0 0 1-1.23.443 1.91 1.91 0 0 1-1.477-.69A1.918 1.918 0 0 1 76.75 52zm-14.543 85.943a6.01 6.01 0 0 0 .77-8.45c-2.037-2.443-5.995-2.81-8.45-.766l-7.917 6.598a5.983 5.983 0 0 0-2.16 4.608 6.01 6.01 0 0 0 1.392 3.836 5.975 5.975 0 0 0 4.61 2.16 6.01 6.01 0 0 0 3.837-1.39l7.918-6.6zm-11.754 3.91a1.9 1.9 0 0 1-1.476-.692 1.92 1.92 0 0 1 .244-2.7l7.918-6.59a1.88 1.88 0 0 1 1.226-.44c.574 0 1.11.25 1.475.69a1.924 1.924 0 0 1-.247 2.71l-7.917 6.6a1.88 1.88 0 0 1-1.22.445zM22.05 73.585l-7.92 6.598a5.986 5.986 0 0 0-2.157 4.61c0 1.398.495 2.76 1.392 3.84a5.98 5.98 0 0 0 4.61 2.156 6 6 0 0 0 3.84-1.39l7.916-6.6a6.01 6.01 0 0 0 .77-8.45c-2.04-2.45-6-2.81-8.45-.77zm5.067 6.085l-7.917 6.6c-.44.367-.91.443-1.226.443a1.91 1.91 0 0 1-1.475-.69 1.913 1.913 0 0 1 .24-2.7l7.91-6.6a1.89 1.89 0 0 1 1.22-.446c.57 0 1.11.25 1.472.69a1.925 1.925 0 0 1-.245 2.704zm127.92-2.555c.183.016.37.024.55.024a5.963 5.963 0 0 0 5.97-5.46l.932-10.27a5.95 5.95 0 0 0-1.37-4.39 5.958 5.958 0 0 0-4.07-2.134 5.973 5.973 0 0 0-6.52 5.43l-.94 10.266a5.985 5.985 0 0 0 1.73 4.786 5.988 5.988 0 0 0 3.697 1.725zm-.43-16.41c.086-.972.912-1.738 2.062-1.738a1.924 1.924 0 0 1 1.32.687c.32.39.48.886.43 1.4l-.94 10.26a1.902 1.902 0 0 1-1.91 1.743l-.185-.008a1.913 1.913 0 0 1-1.73-2.09l.93-10.26zm33.33-5.26C173.747 29.02 147.973 9.722 117.455 4.34 112.17 1.512 106.215 0 100.005 0c-6.246 0-12.24 1.537-17.55 4.404C52.23 9.84 26.69 28.924 12.508 55.058 2.223 64.123-2.252 78.374 1.098 91.71a100.16 100.16 0 0 0-.586 10.703c0 25.592 9.71 48.955 25.63 66.62 5.027 14.39 18.878 24.655 34.48 24.804a99.045 99.045 0 0 0 39.503 8.188c5.628 0 11.13-.52 16.505-1.428.032.004.06.016.095.016.21 0 .422-.034.632-.1.03-.01.047-.033.075-.043.182-.033.368-.055.55-.09-.023-.06-.04-.126-.06-.185.686-.51 1.02-1.398.742-2.257a41.34 41.34 0 0 1-2.038-12.86c0-22.8 18.552-41.35 41.357-41.35 9.362 0 18.192 3.05 25.54 8.82a2.036 2.036 0 0 0 2.862-.344c.128-.164.198-.35.27-.535 8.308-14.54 13.082-31.35 13.082-49.26 0-3.86-.242-7.65-.67-11.39 2.987-12.95-1.324-26.66-11.128-35.58zm-8.133-5.646c-16.62-8.69-40.722-26.23-53.96-39.28-.047-.05-.102-.09-.15-.14 22.43 6.24 41.555 20.46 54.11 39.41zm-105.6-39.32l-.04.03C61.02 23.47 37.17 40.85 20.564 49.6c12.494-18.76 31.44-32.853 53.64-39.124zm-69.61 91.93c0-.54.03-1.07.04-1.6 7.745 16.03 16.066 41.46 19.44 59.33-12.21-16.05-19.48-36.05-19.48-57.73zm95.53 95.53a95.08 95.08 0 0 1-30.327-4.97c8.45-1.06 19.014-1.64 30.21-1.64 4.483 0 8.845.1 13.03.28a45.45 45.45 0 0 0 1.09 5.25 94.164 94.164 0 0 1-14.002 1.07zm83.91-50.05a45.053 45.053 0 0 0-4.562-2.86c4.176-15.51 10.322-32.79 16.13-44.7.014.69.052 1.372.052 2.065.002 16.47-4.244 31.943-11.62 45.48zm10.9-57.03s-.003 0 0 0a32.065 32.065 0 0 1-.987 3.17c-.014.04-.022.07-.038.11a31.983 31.983 0 0 1-1.39 3.19c-5.98 11.93-12.41 29.8-16.8 45.91a45.14 45.14 0 0 0-17.75-3.61c-25.06 0-45.44 20.382-45.44 45.43 0 .83.05 1.65.094 2.472-4.08-.17-8.29-.28-12.634-.28-12.944 0-25.092.76-34.205 2.143a29.75 29.75 0 0 1-2.166.244 32.48 32.48 0 0 1-2.66.12c-7.005 0-13.62-2.3-19.056-6.2l-.01-.008a35.96 35.96 0 0 1-2.217-1.735l-.024-.024a32.718 32.718 0 0 1-9.906-14.85c0-.002 0-.004-.003-.006a32.582 32.582 0 0 1-.623-2.16 27.478 27.478 0 0 1-.51-2.385c-3.12-18.83-12.6-48.02-21.146-65.065a31.987 31.987 0 0 1-1.27-2.9c-5.028-13.1-.97-27.99 9.6-36.844a31.802 31.802 0 0 1 2.718-2.05c.037-.027.07-.053.106-.077a32.7 32.7 0 0 1 3.063-1.82c16.94-8.777 41.768-26.81 55.348-40.21a31.2 31.2 0 0 1 2.01-1.796 28.72 28.72 0 0 1 1.94-1.48c5.5-3.92 12.08-6.07 19.03-6.07 6.93 0 13.49 2.13 18.97 6.02.37.26.74.53 1.1.804.3.233.6.465.897.713a29.865 29.865 0 0 1 2.02 1.81c13.585 13.4 38.414 31.435 55.348 40.21a31.98 31.98 0 0 1 3.26 1.962c.078.05.145.1.215.154a31.727 31.727 0 0 1 2.843 2.21h.006c9.302 8.08 13.35 20.91 10.28 32.89z" fill="#F6F5EF" fill-rule="evenodd" fill-opacity=".7"/></svg>