<svg width="200" height="203" viewBox="0 0 200 203" xmlns="http://www.w3.org/2000/svg"><title>Shape</title><path d="M100.007 68.816c-18.59 0-33.714 15.124-33.714 33.714 0 18.59 15.124 33.718 33.714 33.718 18.59 0 33.714-15.128 33.714-33.718 0-18.588-15.122-33.714-33.713-33.714zm0 63.353c-16.34 0-29.635-13.298-29.635-29.64 0-16.338 13.296-29.633 29.635-29.633 16.34 0 29.636 13.295 29.636 29.633 0 16.342-13.296 29.64-29.636 29.64zm21.732-66.283a5.97 5.97 0 0 0 4.61 2.163 6.02 6.02 0 0 0 3.838-1.39 5.97 5.97 0 0 0 2.135-4.066 5.956 5.956 0 0 0-1.365-4.384l-6.596-7.916c-2.035-2.444-5.992-2.816-8.45-.772a5.97 5.97 0 0 0-2.135 4.07 5.96 5.96 0 0 0 1.366 4.383l6.596 7.912zm-3.22-13.23a1.913 1.913 0 0 1 2.703.248l6.597 7.918a1.91 1.91 0 0 1-.246 2.703c-.443.368-.91.446-1.226.446a1.9 1.9 0 0 1-1.475-.694l-6.598-7.915a1.9 1.9 0 0 1-.437-1.4c.047-.512.29-.973.68-1.302zm-67.524 62.28a6.007 6.007 0 0 0 .77-8.445l-6.598-7.918c-2.04-2.446-5.998-2.81-8.45-.77a5.962 5.962 0 0 0-2.132 4.065 5.96 5.96 0 0 0 1.363 4.383l6.597 7.92a5.986 5.986 0 0 0 4.61 2.157 6.012 6.012 0 0 0 3.84-1.392zm-11.913-11.294a1.91 1.91 0 0 1-.437-1.402c.047-.508.29-.97.683-1.298.442-.37.91-.45 1.227-.45.572 0 1.11.254 1.475.692l6.598 7.918a1.922 1.922 0 0 1-1.47 3.15c-.574 0-1.112-.253-1.477-.692l-6.6-7.917zm14.022-38.926a5.98 5.98 0 0 0 4.61 2.157c1.396 0 2.76-.493 3.84-1.39 2.538-2.117 2.884-5.91.767-8.446l-6.597-7.918c-2.04-2.45-5.994-2.816-8.45-.77a6.006 6.006 0 0 0-.77 8.45l6.6 7.917zm-3.218-13.23c.442-.37.91-.445 1.228-.445.572 0 1.11.25 1.477.69l6.596 7.916a1.92 1.92 0 1 1-2.947 2.46l-6.597-7.92a1.92 1.92 0 0 1 .244-2.702zM98.995 39.85a5.968 5.968 0 0 0 6.52-5.428l.933-10.266a6.01 6.01 0 0 0-5.43-6.515 5.96 5.96 0 0 0-6.52 5.43l-.933 10.265a5.966 5.966 0 0 0 1.733 4.782 6.012 6.012 0 0 0 3.697 1.732zm-.432-16.41c.09-.973.917-1.738 2.065-1.738a1.92 1.92 0 0 1 1.756 2.085l-.934 10.264a1.904 1.904 0 0 1-1.903 1.746l-.18-.01c-.574-.052-.96-.33-1.184-.555a1.913 1.913 0 0 1-.553-1.53l.933-10.264zM60.68 158.34c-3.36-.314-6.22 2.14-6.518 5.43l-.932 10.26a5.977 5.977 0 0 0 1.734 4.79 5.972 5.972 0 0 0 3.695 1.728 5.966 5.966 0 0 0 6.52-5.428l.932-10.265a6.003 6.003 0 0 0-5.43-6.514zm.434 16.408a1.904 1.904 0 0 1-1.904 1.745l-.183-.01a1.906 1.906 0 0 1-1.73-2.083l.93-10.262c.09-.988.9-1.738 2.063-1.738a.04.04 0 0 1 .02.004 1.92 1.92 0 0 1 1.74 2.083l-.936 10.26zM161.19 95.217a5.97 5.97 0 0 0 5.97-5.455 6.01 6.01 0 0 0-5.434-6.52l-10.263-.933c-1.818-.158-3.527.47-4.788 1.733a6 6 0 0 0-1.727 3.695 5.954 5.954 0 0 0 1.364 4.384 5.977 5.977 0 0 0 4.066 2.135l10.26.935c.185.017.37.025.55.025zm-11.745-5.704a1.904 1.904 0 0 1-.436-1.4c.05-.575.328-.96.548-1.183.358-.356.83-.556 1.495-.556.012 0 .026 0 .04.002l10.26.933a1.924 1.924 0 0 1 1.74 2.082 1.906 1.906 0 0 1-1.904 1.746l-10.444-.944a1.91 1.91 0 0 1-1.3-.68zm-52.735 57.92l-10.258-.93a5.935 5.935 0 0 0-4.793 1.73 5.995 5.995 0 0 0-1.728 3.694 5.948 5.948 0 0 0 1.364 4.386 5.973 5.973 0 0 0 4.067 2.136l10.265.932c.183.016.365.024.547.024a5.97 5.97 0 0 0 5.97-5.457 5.952 5.952 0 0 0-1.364-4.383 5.978 5.978 0 0 0-4.07-2.135zm-.54 7.892l-10.44-.94a1.9 1.9 0 0 1-1.3-.684 1.895 1.895 0 0 1-.437-1.4c.052-.575.33-.96.55-1.183.355-.356.822-.554 1.49-.554.014 0 .03 0 .045.002l10.263.932a1.9 1.9 0 0 1 1.302.683c.327.39.483.89.434 1.398a1.908 1.908 0 0 1-1.905 1.747zm46.68-29.4l-10.284.632a6.006 6.006 0 0 0-5.62 6.356 6.005 6.005 0 0 0 6.357 5.618l10.285-.632c3.3-.204 5.82-3.056 5.617-6.36-.198-3.278-3.067-5.822-6.354-5.614zm.488 7.903l-10.28.632-.124.004a1.922 1.922 0 0 1-1.916-1.798c-.034-.578.18-1 .37-1.257a1.902 1.902 0 0 1 1.428-.782l10.41-.637a1.92 1.92 0 0 1 .112 3.838zm24.71-16.99l-7.92 6.602a5.978 5.978 0 0 0-2.157 4.608 6.02 6.02 0 0 0 1.39 3.838 5.99 5.99 0 0 0 4.613 2.16 6.01 6.01 0 0 0 3.836-1.39l7.917-6.598c2.54-2.117 2.882-5.905.767-8.453-2.036-2.44-5.998-2.808-8.446-.766zm5.068 6.084l-7.92 6.6c-.44.368-.908.447-1.22.447a1.91 1.91 0 0 1-1.478-.696 1.893 1.893 0 0 1-.447-1.224c0-.57.254-1.11.692-1.475l7.92-6.598a1.89 1.89 0 0 1 1.224-.445 1.918 1.918 0 0 1 1.23 3.39zM77.99 59.472a6.01 6.01 0 0 0 3.835-1.39l7.916-6.596a5.957 5.957 0 0 0 2.136-4.067 5.958 5.958 0 0 0-1.366-4.385c-2.038-2.446-5.998-2.808-8.448-.767l-7.918 6.598a5.982 5.982 0 0 0-2.157 4.608c0 1.394.492 2.758 1.39 3.84a5.982 5.982 0 0 0 4.612 2.158zM76.755 52l7.92-6.597c.44-.37.91-.446 1.224-.446.574 0 1.11.25 1.475.69.33.393.485.892.438 1.403-.046.51-.29.97-.683 1.3l-7.917 6.6c-.44.367-.91.443-1.224.443-.573 0-1.112-.25-1.476-.69A1.918 1.918 0 0 1 76.756 52zm-14.543 85.943a6.01 6.01 0 0 0 .77-8.45c-2.037-2.443-5.995-2.81-8.45-.766l-7.917 6.598a5.983 5.983 0 0 0-2.16 4.608c0 1.394.495 2.76 1.392 3.836a5.975 5.975 0 0 0 4.61 2.16 6.01 6.01 0 0 0 3.837-1.39l7.918-6.597zm-11.754 3.91c-.575 0-1.112-.25-1.476-.692a1.92 1.92 0 0 1 .244-2.703l7.918-6.595c.442-.37.91-.444 1.226-.444.574 0 1.11.25 1.475.688a1.924 1.924 0 0 1-.247 2.706l-7.917 6.598c-.438.367-.91.442-1.224.442zM22.05 73.585l-7.92 6.598a5.986 5.986 0 0 0-2.157 4.61c0 1.398.495 2.76 1.392 3.84a5.98 5.98 0 0 0 4.61 2.156c1.398 0 2.762-.49 3.84-1.39l7.916-6.598a6.01 6.01 0 0 0 .766-8.45c-2.04-2.443-5.998-2.81-8.448-.766zm5.067 6.085l-7.917 6.6c-.44.367-.91.443-1.226.443a1.91 1.91 0 0 1-1.475-.69 1.913 1.913 0 0 1 .245-2.7l7.917-6.6a1.89 1.89 0 0 1 1.226-.446c.572 0 1.11.25 1.473.69a1.925 1.925 0 0 1-.244 2.704zm127.92-2.555c.183.016.37.024.55.024a5.963 5.963 0 0 0 5.97-5.453l.932-10.263a5.95 5.95 0 0 0-1.368-4.384 5.958 5.958 0 0 0-4.065-2.134 5.973 5.973 0 0 0-6.518 5.43l-.935 10.266a5.985 5.985 0 0 0 1.735 4.786 5.988 5.988 0 0 0 3.697 1.727zm-.43-16.41c.086-.972.912-1.738 2.062-1.738a1.924 1.924 0 0 1 1.323.687c.327.39.48.886.434 1.4l-.936 10.26a1.902 1.902 0 0 1-1.903 1.743l-.183-.008a1.913 1.913 0 0 1-1.73-2.083l.93-10.262zm33.33-5.26C173.746 29.02 147.973 9.722 117.455 4.34 112.17 1.512 106.216 0 100.006 0c-6.247 0-12.24 1.537-17.55 4.404C52.23 9.84 26.69 28.924 12.507 55.058 2.223 64.123-2.254 78.374 1.096 91.71a100.16 100.16 0 0 0-.584 10.703c0 25.592 9.71 48.955 25.63 66.62 5.027 14.39 18.878 24.655 34.48 24.804a99.045 99.045 0 0 0 39.503 8.188c5.628 0 11.13-.52 16.505-1.428.032.004.06.016.095.016.21 0 .422-.034.632-.1.03-.01.047-.033.075-.043.182-.033.368-.055.55-.09-.023-.06-.04-.126-.06-.185.686-.51 1.02-1.398.742-2.257a41.34 41.34 0 0 1-2.038-12.86c0-22.8 18.552-41.35 41.357-41.35 9.362 0 18.192 3.05 25.54 8.82a2.036 2.036 0 0 0 2.862-.344c.128-.164.198-.35.27-.535 8.308-14.54 13.082-31.348 13.082-49.257 0-3.853-.242-7.65-.67-11.388 2.987-12.95-1.324-26.656-11.128-35.58zm-8.133-5.646c-16.62-8.69-40.722-26.222-53.96-39.28-.047-.047-.102-.087-.15-.132 22.43 6.24 41.555 20.46 54.11 39.41zM74.203 10.484c-.012.012-.027.022-.04.034-13.142 12.965-36.992 30.338-53.6 39.09 12.495-18.76 31.44-32.854 53.64-39.125zm-69.61 91.928c0-.538.032-1.065.04-1.6 7.746 16.034 16.067 41.465 19.44 59.328-12.21-16.045-19.48-36.05-19.48-57.727zm95.532 95.53a95.08 95.08 0 0 1-30.328-4.964c8.45-1.056 19.014-1.634 30.21-1.634 4.483 0 8.845.1 13.03.28a45.45 45.45 0 0 0 1.09 5.248 94.164 94.164 0 0 1-14.002 1.07zm83.91-50.05a45.053 45.053 0 0 0-4.563-2.853c4.176-15.503 10.322-32.787 16.13-44.692.014.69.052 1.372.052 2.065.002 16.47-4.244 31.944-11.62 45.48zm10.898-57.03c0 .002-.002.002 0 0a32.065 32.065 0 0 1-.986 3.17c-.014.04-.022.076-.038.115a31.983 31.983 0 0 1-1.383 3.192c-5.98 11.934-12.404 29.803-16.796 45.912a45.14 45.14 0 0 0-17.747-3.604c-25.054 0-45.436 20.382-45.436 45.43 0 .83.053 1.65.097 2.472-4.08-.167-8.29-.28-12.635-.28-12.944 0-25.092.76-34.205 2.145a29.75 29.75 0 0 1-2.168.242c-.887.073-1.776.12-2.66.12-7.003 0-13.62-2.3-19.054-6.203l-.012-.008c-.76-.55-1.5-1.127-2.213-1.735l-.024-.023a32.718 32.718 0 0 1-9.907-14.85c0-.003 0-.005-.003-.007a32.582 32.582 0 0 1-.624-2.158 27.478 27.478 0 0 1-.51-2.386c-3.117-18.83-12.6-48.02-21.144-65.066a31.987 31.987 0 0 1-1.277-2.907C1.172 81.33 5.23 66.438 15.8 57.585a31.802 31.802 0 0 1 2.718-2.05c.037-.027.07-.053.106-.077a32.7 32.7 0 0 1 3.062-1.82c16.936-8.774 41.763-26.81 55.345-40.21a31.2 31.2 0 0 1 2.01-1.795 28.72 28.72 0 0 1 1.94-1.48c5.492-3.92 12.076-6.07 19.03-6.07 6.927 0 13.487 2.13 18.964 6.02.37.26.735.528 1.095.802.3.233.6.465.892.713a29.865 29.865 0 0 1 2.022 1.81c13.584 13.4 38.413 31.438 55.347 40.21 1.142.592 2.22 1.258 3.26 1.965.076.05.143.103.213.156.998.686 1.942 1.427 2.845 2.21 0 0 .002 0 .004.003 9.305 8.08 13.352 20.912 10.28 32.89z" fill="#F6F5EF" fill-rule="evenodd" fill-opacity=".7"/></svg>