<svg width="150" height="142" viewBox="0 0 150 142" xmlns="http://www.w3.org/2000/svg"><title>Shape</title><path d="M150.003 53.373C150.003 23.943 126.06 0 96.628 0c-2.567 0-4.77 1.53-5.79 3.72-9.406 1.076-18.424 5.316-25.886 12.78-7.123 7.12-8.864 13.253-10.567 21.692l-7.548 7.548.243.245c-2.244-.968-4.552-1.595-6.796-1.595-2.614 0-4.886.836-6.778 2.47-9.732-2.372-15.997-12.022-14.044-21.946L19.7 23.7 4.67 17.603.15 64.1C-1.2 78.4 6.956 84.358 9.147 85.69c-1.402 8.173.57 15.15 5.897 20.472l28.796 28.795c4.23 4.23 9.446 6.375 15.51 6.375 17.16 0 35.962-16.95 43.25-24.236 4.1-4.1 3.568-9.393 1.364-14.35l.252.25 7.32-7.32c8.536-1.67 14.743-3.398 21.97-10.622 7.464-7.466 11.703-16.483 12.78-25.89 2.187-1.018 3.717-3.22 3.717-5.79zM11.683 90.3c.055-3.853 1.066-8.11 3.067-12.766 3.88-9.03 10.535-17.48 15.867-23.37l65.217 65.218C82.81 131.19 69.618 138.154 59.7 138.315L11.683 90.3zm20.974-38.34c.456-.48.9-.94 1.317-1.37l65.43 65.428c-.456.446-.91.894-1.363 1.325L32.66 51.96zM3.135 64.387l4.13-42.49 9.045 3.664c-1.454 10.47 4.862 20.43 14.76 23.72-5.727 5.97-14.35 16.06-19.077 27.07a45.138 45.138 0 0 0-2.156 6.19c-2.454-1.81-7.75-7.07-6.702-18.15zm14.03 39.652c-2.603-2.61-4.266-5.63-5.02-9.04l42.845 42.84c-3.41-.76-6.44-2.428-9.03-5.018L17.17 104.04zm84.26 9.76L36.192 48.56c1.183-.79 2.533-1.18 4.094-1.18 4.89 0 11.848 4.037 18.612 10.8l33.064 33.06c2.827 2.857 14.326 15.206 9.466 22.554zm-2.873-29.82l-1.344 1.34-32.532-32.53 1.344-1.35 32.532 32.53zM74.205 55.39l1.33-1.33 5.804 4.352 10.25 10.25 4.35 5.8-1.34 1.332-20.4-20.402zM84.5 57.33l12.317-11.16 7.017 7.014L92.674 65.5l-8.17-8.17zm12.62 32.15l.133.13-1.344 1.346-36.87-36.864 1.34-1.343.043.04 36.69 36.69zm34.263-6.55c-6.747 6.747-12.644 8.293-20.87 9.888l-.448.084-7.348 7.348c-1.44-2.58-3.22-4.983-4.878-6.982l3.65-3.657-2.168-2.16 3.467-3.47-6.065-6.06 3.17-3.17-5.237-6.98 13.31-14.68-11.06-11.05L82.22 55.35l-6.97-5.245-3.17 3.175-6.063-6.068-3.468 3.464-2.17-2.165-3.657 3.66c-2.05-1.705-4.5-3.51-7.127-4.954l7.54-7.543.09-.443c1.673-8.375 3.17-13.94 9.837-20.605 6.707-6.704 14.77-10.57 23.207-11.73.118 1.523.736 2.945 1.83 4.035a6.347 6.347 0 0 0 4.523 1.87C119 12.8 137.2 31.004 137.2 53.374c0 3.36 2.616 6.094 5.912 6.35-1.164 8.437-5.03 16.5-11.735 23.205zm12.22-26.16a3.408 3.408 0 0 1-3.403-3.4c0-24.026-19.546-43.573-43.58-43.573a3.364 3.364 0 0 1-2.397-.994 3.38 3.38 0 0 1-.996-2.405c0-.91.35-1.765.993-2.407A3.39 3.39 0 0 1 96.63 3c27.777.003 50.373 22.6 50.373 50.376 0 1.876-1.527 3.4-3.402 3.4z" fill="#F6F5EF" fill-rule="evenodd"/></svg>