<svg width="150" height="142" viewBox="0 0 150 142" xmlns="http://www.w3.org/2000/svg"><title>Shape</title><path d="M150.003 53.373C150.003 23.943 126.06 0 96.628 0c-2.567 0-4.77 1.53-5.79 3.72-9.406 1.076-18.424 5.316-25.886 12.78-7.123 7.12-8.864 13.253-10.567 21.692l-7.548 7.548.243.245c-2.244-.968-4.552-1.595-6.796-1.595-2.614 0-4.886.836-6.778 2.47-9.732-2.372-15.997-12.022-14.044-21.946L19.7 23.7 4.67 17.603.15 64.1C-1.2 78.4 6.956 84.358 9.147 85.69c-1.402 8.173.57 15.15 5.897 20.472l28.796 28.795c4.23 4.23 9.446 6.375 15.51 6.375 17.16 0 35.962-16.95 43.25-24.236 4.1-4.1 3.568-9.393 1.364-14.35l.252.25 7.32-7.32c8.536-1.67 14.743-3.398 21.97-10.622 7.464-7.466 11.703-16.483 12.78-25.89 2.187-1.018 3.717-3.22 3.717-5.79zM11.683 90.3c.055-3.853 1.066-8.11 3.067-12.766 3.88-9.03 10.535-17.48 15.867-23.37l65.217 65.218C82.81 131.19 69.618 138.154 59.7 138.315L11.683 90.3zm20.974-38.34c.456-.48.9-.94 1.317-1.37l65.43 65.428c-.456.446-.91.894-1.363 1.325L32.658 51.96zM3.135 64.387l4.13-42.49 9.045 3.664c-1.454 10.47 4.862 20.43 14.76 23.72-5.727 5.965-14.35 16.06-19.077 27.07a45.138 45.138 0 0 0-2.156 6.185c-2.454-1.817-7.75-7.07-6.702-18.148zm14.03 39.652c-2.603-2.602-4.266-5.623-5.02-9.037l42.846 42.845c-3.41-.757-6.44-2.424-9.03-5.014L17.164 104.04zm84.26 9.76L36.192 48.568c1.183-.79 2.533-1.18 4.094-1.18 4.89 0 11.848 4.037 18.612 10.8l33.064 33.06c2.827 2.857 14.326 15.206 9.466 22.554zm-2.873-29.818l-1.344 1.344-32.532-32.53 1.344-1.345 32.532 32.532zm-24.347-28.59l1.33-1.332 5.804 4.353 10.25 10.25 4.35 5.8-1.333 1.332-20.402-20.402zm10.296 1.94l12.315-11.163 7.017 7.014L92.672 65.5l-8.17-8.17zm12.62 32.15l.132.13-1.344 1.345-36.862-36.864 1.344-1.343.043.044L97.12 89.48zm34.262-6.55c-6.747 6.746-12.644 8.292-20.87 9.887l-.448.084-7.348 7.348c-1.44-2.58-3.22-4.983-4.878-6.982l3.657-3.657-2.164-2.164 3.467-3.468-6.064-6.064 3.172-3.173-5.238-6.98 13.31-14.682L96.92 42.03 82.227 55.344l-6.97-5.244-3.17 3.174-6.064-6.065-3.467 3.466-2.165-2.165-3.656 3.658c-2.05-1.705-4.498-3.51-7.126-4.954l7.542-7.543.09-.444c1.672-8.373 3.17-13.94 9.836-20.603C73.78 11.92 81.842 8.053 90.28 6.893c.117 1.524.735 2.946 1.828 4.036a6.347 6.347 0 0 0 4.524 1.873c22.372 0 40.573 18.203 40.573 40.573 0 3.36 2.616 6.094 5.912 6.35-1.164 8.437-5.03 16.5-11.735 23.205zm12.22-26.16a3.408 3.408 0 0 1-3.403-3.4c0-24.027-19.546-43.574-43.58-43.574a3.364 3.364 0 0 1-2.397-.994 3.38 3.38 0 0 1-.996-2.405c0-.91.35-1.765.993-2.407a3.39 3.39 0 0 1 2.41-.996c27.777.003 50.373 22.6 50.373 50.376 0 1.875-1.527 3.4-3.402 3.4z" fill="#F6F5EF" fill-rule="evenodd"/></svg>